<?xml version="1.0" encoding="iso-8859-1"?>
<!-- Generator: Adobe Illustrator 19.0.0, SVG Export Plug-In . SVG Version: 6.00 Build 0)  -->
<svg version="1.1" id="Capa_1" xmlns="http://www.w3.org/2000/svg" xmlns:xlink="http://www.w3.org/1999/xlink" x="0px" y="0px"
	 viewBox="0 0 490.4 490.4" style="enable-background:new 0 0 490.4 490.4;" xml:space="preserve">
<g>
	<g>
		<g>
			<path d="M185,112.9c25.6,0,46.6,10.9,46.6,24.5c0,10.1-17.9,13.6-40,43.9c-4.3-1.2-21.6-7.8-42.4,7c-5.8-21-10.5-44.3-10.5-50.9
				C138.7,123.8,159.3,112.9,185,112.9z M208.3,229.1c0,17.1-13.6,30.7-30.7,30.7s-30.7-13.6-30.7-30.7s13.6-30.7,30.7-30.7
				S208.3,212.4,208.3,229.1z M61,221.7c0-25.6,10.9-46.6,24.5-46.6c10.1,0,13.2,17.9,43.9,40c-4,16.4,1.2,34.2,7,42.4
				c-21,5.8-44.3,10.9-50.5,10.9C72.3,268.3,61,247.3,61,221.7z M170.2,345.6c-25.6,0-46.6-10.9-46.6-24.5c0-10.1,17.9-13.2,40-43.9
				c16.9,3.6,34.2-1.2,42.4-7c5.8,21,10.5,44.3,10.5,50.9C216.4,334.8,195.9,345.6,170.2,345.6z M294.2,236.8
				c0,25.6-10.9,46.6-24.5,46.6c-10.1,0-13.2-17.9-43.9-40c1.2-4.3,5.8-24.2-7-42.4c21-5.8,44.3-10.5,50.9-10.5
				C282.9,190.2,294.2,211.2,294.2,236.8z"/>
			<path d="M466.3,51.5h-443C10.5,51.5,0,62,0,74.8v309.3c0,12.8,10.5,23.3,23.3,23.3h29.9v31.5h54.4v-31.5h275.1v31.5h54.5v-31.5
				h29.9c12.8,0,23.3-10.5,23.3-23.3V74.4C489.6,61.6,479.1,51.5,466.3,51.5z M177.6,373.2C95.2,373.2,28,308.7,28,229.1
				S95.2,84.9,177.6,84.9s149.6,64.5,149.6,144.2S260,373.2,177.6,373.2z M460.1,373.6h-96.8V236.8h96.8L460.1,373.6L460.1,373.6z
				 M460.1,189.4h-96.8c-5.4,0-10.1-4.3-10.1-10.1s4.3-10.1,10.1-10.1h96.8c5.4,0,10.1,4.3,10.1,10.1
				C470.2,185.2,465.5,189.4,460.1,189.4z M460.1,158h-96.8c-5.4,0-10.1-4.3-10.1-10.1c0-5.4,4.3-10.1,10.1-10.1h96.8
				c5.4,0,10.1,4.3,10.1,10.1C469.8,153.3,465.5,158,460.1,158z M460.1,126.1h-96.8c-5.4,0-10.1-4.3-10.1-10.1
				c0-5.4,4.3-10.1,10.1-10.1h96.8c5.4,0,10.1,4.3,10.1,10.1C469.8,121.8,465.5,126.1,460.1,126.1z M460.1,94.6h-96.8
				c-5.4,0-10.1-4.3-10.1-10.1c0-5.4,4.3-10.1,10.1-10.1h96.8c5.4,0,10.1,4.3,10.1,10.1C469.8,90.4,465.5,94.6,460.1,94.6z"/>
		</g>
	</g>
</g>
<g>
</g>
<g>
</g>
<g>
</g>
<g>
</g>
<g>
</g>
<g>
</g>
<g>
</g>
<g>
</g>
<g>
</g>
<g>
</g>
<g>
</g>
<g>
</g>
<g>
</g>
<g>
</g>
<g>
</g>
</svg>
