<?xml version="1.0" encoding="utf-8"?>
<!-- Svg Vector Icons : http://www.onlinewebfonts.com/icon -->
<!DOCTYPE svg PUBLIC "-//W3C//DTD SVG 1.1//EN" "http://www.w3.org/Graphics/SVG/1.1/DTD/svg11.dtd">
<svg version="1.1" xmlns="http://www.w3.org/2000/svg" xmlns:xlink="http://www.w3.org/1999/xlink" x="0px" y="0px" viewBox="0 0 1000 1000" enable-background="new 0 0 1000 1000" xml:space="preserve">
<metadata> Svg Vector Icons : http://www.onlinewebfonts.com/icon </metadata>
<g><g transform="translate(0.000000,511.000000) scale(0.100000,-0.100000)"><path d="M580.2,1961.3c-13.4-13.4-23-63.2-23-112.9v-88.1l-93.8-11.5c-126.4-15.3-235.5-72.7-302.5-160.8l-53.6-68.9L101.6,56.4c-3.8-1456.9-3.8-1462.7,36.4-1556.5c47.9-112.9,134-193.3,248.9-237.4c76.6-28.7,453.7-30.6,4682.9-26.8l4598.6,5.7l53.6,40.2c28.7,21.1,80.4,76.6,111,120.6l57.4,82.3l5.7,1512.5l3.8,1512.5l-42.1,74.7c-59.3,105.3-145.5,153.2-294.8,166.5l-122.5,9.6v88.1c0,49.8-9.6,99.6-23,112.9C9385,1993.9,612.8,1993.9,580.2,1961.3z M9287.4,822.2c0-972.6-1.9-1010.8-38.3-1087.4c-21.1-44-61.3-90-88.1-101.5c-34.5-17.2-1089.4-23-4141.1-23H926.7l-65.1,44c-34.5,23-84.2,72.8-107.2,107.2l-44,65.1V828v1003.2h4288.5h4288.5V822.2z M557.2,707.3v-896l45.9-95.7c51.7-112.9,128.3-183.8,245.1-227.8c74.7-28.7,444.2-30.6,4221.5-26.8l4139.1,5.7l53.6,40.2c28.7,21.1,80.4,76.6,111,120.6l57.4,82.3l5.7,945.8l5.7,945.8h86.2c95.7,0,187.6-38.3,206.8-86.2c5.7-17.2,11.5-539.9,11.5-1160.2V-772.6h-4748h-4748V339.8c0,760,5.7,1123.8,21.1,1150.6c24.9,46,158.9,109.1,233.6,111h51.7V707.3z M710.4-1272.2v-346.5l-137.9,7.7c-111,5.7-153.2,15.3-201,51.7c-101.5,74.6-120.6,141.7-120.6,402v231.7h229.7h229.7V-1272.2z M9134.2-1078.9v-151.2l-289.1-5.8c-252.7-5.7-292.9-9.6-312.1-38.3c-15.3-24.9-15.3-44,0-67c19.2-30.6,59.4-34.5,312.1-40.2l289.1-5.7v-113v-114.9H4998.9H863.6v114.9v114.9l3658.6,3.8c3461.4,5.7,3660.5,7.7,3681.6,40.2c15.3,23,15.3,42.1,0,67c-21.1,30.6-220.2,32.5-3681.6,38.3L863.6-1232v153.2v153.2h4135.3h4135.3V-1078.9z M9746.8-1168.9c0-204.8-5.7-254.6-38.3-321.6c-49.8-101.5-101.5-124.4-277.6-124.4h-143.6v344.6v344.6h229.7h229.8V-1168.9z"/><path d="M8238.2,1501.9c-13.4-13.4-23-36.4-23-53.6c0-67,40.2-76.6,327.4-76.6H8826l5.7-97.6c5.7-113,47.9-157,107.2-120.6c24.9,17.2,34.5,53.6,38.3,168.5c3.8,93.8-1.9,158.9-17.2,176.1C8931.3,1534.4,8274.6,1538.2,8238.2,1501.9z"/><path d="M8848.9,962c-15.3-17.2-21.1-82.3-17.2-176.1c3.8-114.9,13.4-151.3,40.2-168.5c23-15.3,42.1-15.3,67,0c24.9,17.2,34.5,53.6,38.3,168.5c5.7,155.1-11.5,202.9-72.7,202.9C8885.3,988.8,8860.4,977.3,8848.9,962z"/><path d="M4026.3-1025.3c-30.6-30.6-28.7-82.3,3.8-109.1c42.1-36.4,241.2-19.1,268,23c15.3,23,15.3,42.1,0,67C4271.4-1004.2,4064.6-987,4026.3-1025.3z"/><path d="M4562.4-1025.3c-30.6-30.6-28.7-82.3,3.8-109.1c17.2-15.3,151.3-21.1,442.3-17.2c373.3,5.7,419.3,9.6,438.4,40.2c15.3,23,15.3,42.1,0,67c-19.2,28.7-65.1,32.5-440.3,38.3C4696.4-1002.3,4579.6-1008,4562.4-1025.3z"/><path d="M5711.1-1025.3c-30.6-30.6-28.7-82.3,3.8-109.1c42.1-36.4,241.2-19.1,268,23c15.3,23,15.3,42.1,0,67C5956.1-1004.2,5749.4-987,5711.1-1025.3z"/></g></g>
</svg>