<?xml version="1.0" encoding="utf-8"?>
<!-- Svg Vector Icons : http://www.onlinewebfonts.com/icon -->
<!DOCTYPE svg PUBLIC "-//W3C//DTD SVG 1.1//EN" "http://www.w3.org/Graphics/SVG/1.1/DTD/svg11.dtd">
<svg version="1.1" xmlns="http://www.w3.org/2000/svg" xmlns:xlink="http://www.w3.org/1999/xlink" x="0px" y="0px"
    viewBox="0 0 256 256" enable-background="new 0 0 256 256" xml:space="preserve">
    <metadata> Svg Vector Icons : http://www.onlinewebfonts.com/icon </metadata>
    <g>
        <g>
            <g>
                <path fill="#000000"
                    d="M23.1,34.5c-1.7,0.5-4.1,1.8-5.4,2.7c-2.8,2-6.2,6.8-7.2,10.1C10,48.9,9.9,60.6,10,86.6l0.2,36.9l1.4,2.8c1.8,3.7,5.7,7.4,9.6,9.3l3.3,1.5h103.7h103.7l3.3-1.5c3.8-1.8,7.8-5.7,9.6-9.4l1.3-2.7V85.4V47.3l-1.4-2.8c-1.8-3.7-5.7-7.4-9.6-9.3l-3.3-1.5L129,33.6C31.3,33.5,26,33.5,23.1,34.5z M232.9,44.8c4.5,3.4,4.3,1.3,4.3,40.6c0,39.3,0.2,37.2-4.3,40.6l-2.1,1.7H128.1H25.5l-2.1-1.7c-4.4-3.4-4.3-1.5-4.4-39.3c-0.1-22.5,0.1-34.6,0.5-36.2c0.8-2.8,2.9-5.4,5.4-6.7c1.8-0.9,10.9-0.9,103.9-0.8l102,0.1L232.9,44.8z" />
                <path fill="#000000" d="M113.9,85.4v4.7h14.2h14.2v-4.7v-4.7h-14.2h-14.2V85.4z" />
                <path fill="#000000" d="M203.2,85.4v4.7h2.7h2.7v-4.7v-4.7h-2.7h-2.7V85.4z" />
                <path fill="#000000" d="M212.6,85.4v4.7h2.7h2.7v-4.7v-4.7h-2.7h-2.7V85.4z" />
                <path fill="#000000" d="M38.3,118.5v4.7h89.8h89.8v-4.7v-4.7h-89.8H38.3V118.5z" />
                <path fill="#000000"
                    d="M92.9,143.6l-1.5,1.4v31.3v31.3l-1.4,2c-0.8,1.1-2.2,2.3-3.4,2.7c-2.8,0.9-7.3,0.9-9.8-0.1c-2.3-1-4.4-4-4.4-6.3c0-4.4-5.6-6.4-8.3-3.1c-1.1,1.4-1.2,2.2-0.9,4.4c0.7,6,4.1,10.8,9.5,13.2c2.5,1.2,3.9,1.4,9.2,1.4c5.3,0,6.7-0.2,9.2-1.4c3.7-1.7,6.6-4.5,8.2-8c1.2-2.6,1.2-3.4,1.4-35l0.2-32.3l-1.5-1.5C97.6,141.7,94.8,141.7,92.9,143.6z" />
                <path fill="#000000"
                    d="M124.9,143.6l-1.5,1.4v37.3v37.3l1.5,1.4c1.9,2,4.6,2,6.5,0l1.5-1.4v-37.3V145l-1.5-1.4c-0.9-0.9-2.1-1.5-3.3-1.5C127,142.1,125.7,142.7,124.9,143.6z" />
                <path fill="#000000"
                    d="M156.7,143.6l-1.5,1.5l0.2,32.3c0.2,31.6,0.2,32.4,1.4,35c1.7,3.5,4.6,6.4,8.2,8c2.5,1.2,3.9,1.4,9.2,1.4c5.3,0,6.7-0.2,9.2-1.4c5.4-2.5,8.9-7.3,9.5-13.2c0.3-2.2,0.1-3.1-0.9-4.4c-2.7-3.4-8.3-1.3-8.3,3.1c0,2.4-2.4,5.5-4.7,6.3c-2.8,0.9-7.3,0.9-9.8-0.1c-1.1-0.5-2.6-1.8-3.3-2.8c-1.1-1.9-1.2-2.9-1.2-33.2V145l-1.5-1.4C161.4,141.7,158.7,141.7,156.7,143.6z" />
            </g>
        </g>
    </g>
</svg>