<?xml version="1.0" encoding="utf-8"?>
<!-- Svg Vector Icons : http://www.onlinewebfonts.com/icon -->
<!DOCTYPE svg PUBLIC "-//W3C//DTD SVG 1.1//EN" "http://www.w3.org/Graphics/SVG/1.1/DTD/svg11.dtd">
<svg version="1.1" xmlns="http://www.w3.org/2000/svg" xmlns:xlink="http://www.w3.org/1999/xlink" x="0px" y="0px"
    viewBox="0 0 256 256" enable-background="new 0 0 256 256" xml:space="preserve">
    <metadata> Svg Vector Icons : http://www.onlinewebfonts.com/icon </metadata>
    <g>
        <g>
            <g>
                <path fill="#000000"
                    d="M29.1,30.3c-8.8,2.1-16.3,9.6-18.3,18.3c-1,4.3-1,75.7,0,80c2.1,8.8,9.4,16.2,18.3,18.3c4.4,1,193.6,1,198,0c8.8-2.1,16.2-9.4,18.3-18.3c0.6-2.4,0.7-8.9,0.7-40c0-40.9,0-40.3-2.9-45.8c-1.9-3.6-6.7-8.4-10.3-10.3c-5.8-3,1.2-2.9-105-2.8C51.7,29.8,31,29.9,29.1,30.3z M227.1,40.8c3.7,1.7,5.8,3.7,7.5,7.2l1.5,3.1l0.1,23.6l0.1,23.6H128H19.7l0.1-23.6L20,51.1l1.2-2.5c0.6-1.4,1.8-3.3,2.6-4.2c1.7-1.9,5.3-4,8-4.5c1.1-0.2,44.9-0.4,97.4-0.3l95.4,0L227.1,40.8z M236.2,117.4l-0.1,8.8l-1.5,3.1c-1.7,3.5-3.8,5.5-7.5,7.2l-2.5,1.2H128H31.5l-2.8-1.3c-3.1-1.5-4.9-3-6.5-5.5c-1.9-3-2.5-6.3-2.5-14.7v-7.7h108.3h108.3L236.2,117.4z" />
                <path fill="#000000"
                    d="M32.2,118.8c-2.7,1.5-3.2,5.5-1,7.7l1.3,1.3h66h66l1.3-1.3c2.2-2.2,1.7-6.3-1-7.7C163,117.9,33.9,117.8,32.2,118.8z" />
                <path fill="#000000"
                    d="M179.7,118.8c-2.7,1.5-3.2,5.5-1,7.7l1.3,1.3h7h7l1.3-1.3c2.2-2.2,1.7-6-1-7.6C192.7,117.9,181.4,117.8,179.7,118.8z" />
                <path fill="#000000"
                    d="M209.2,118.8c-2.7,1.5-3.2,5.5-1,7.7l1.3,1.3h7h7l1.3-1.3c2.2-2.2,1.7-6-1-7.6C222.2,117.9,210.9,117.8,209.2,118.8z" />
                <path fill="#000000"
                    d="M47.6,157.7c-1.6,0.6-4.8,4.6-6,7.1c-3.2,7.1-2.4,13.9,3.3,28.6c3.3,8.4,4.3,12.3,4.3,15.9c0,3.4-0.8,5.5-3.1,8.3c-2.2,2.6-2.3,5-0.4,7c2.7,2.8,5.8,2.1,8.9-2c3.6-4.7,5-10.3,4.2-16.7c-0.4-3.5-1.2-5.9-7.1-22.8c-3-8.4-2.8-12.9,0.7-16.9c1.7-2,2.1-3.4,1.4-5.5C53,158.3,49.9,156.8,47.6,157.7z" />
                <path fill="#000000"
                    d="M86.8,157.7c-1.5,0.6-4.8,4.6-6,7.1c-3.2,7.1-2.4,13.9,3.3,28.4c3.2,8.3,4.3,12.4,4.3,16c0,3.4-0.8,5.5-3,8.2c-1.3,1.6-1.7,2.4-1.7,3.9c0,4,4.6,6.1,7.8,3.8c0.7-0.6,2.1-2.2,3.1-3.7c5-7.3,4.8-15.5-0.5-29.5c-3.9-10.2-4.8-13.2-5.1-16.8c-0.3-4,0.3-6.2,2.2-8.4c1.6-1.9,2.3-3.2,2.3-4.5c0-1.7-1.4-3.7-3-4.4C88.7,157.2,88.1,157.2,86.8,157.7z" />
                <path fill="#000000"
                    d="M126,157.7c-1.5,0.6-4.8,4.6-6,7.1c-3.2,7.1-2.4,13.9,3.3,28.6c3.3,8.4,4.3,12.3,4.3,15.9c0,3.4-0.8,5.5-3.1,8.3c-2.1,2.6-2.3,5-0.4,7c3.1,3.3,6.6,1.8,10.6-4.3c2.3-3.6,3.2-8.9,2.5-14.3c-0.4-3.5-1-5.4-7.1-22.9c-2.9-8.4-2.8-12.9,0.7-16.8c0.7-0.9,1.5-2.2,1.7-2.9C133.2,159.8,129.4,156.4,126,157.7z" />
                <path fill="#000000"
                    d="M189.9,158c-2.7,1.2-2.9,2.2-2.9,14.3c0,5.9-0.1,10.8-0.2,10.8c-0.1,0-4.4-2.4-9.6-5.4c-10.7-6.2-11.9-6.5-14.2-3.9c-1.6,1.8-1.8,4.4-0.4,6.2c0.5,0.6,4.9,3.5,9.9,6.4c4.9,2.9,9,5.3,9,5.5c0,0.2-4.1,2.7-9,5.5c-5,2.9-9.4,5.7-9.9,6.4c-1.4,1.8-1.2,4.3,0.4,6.2c2.4,2.6,3.5,2.3,14.2-3.9c5.2-3,9.4-5.4,9.6-5.4c0.1,0,0.2,4.9,0.2,10.9c0,10,0.1,11.1,0.9,12.4c1.8,2.9,5.7,3,7.9,0.3c0.9-1.1,0.9-1.9,0.9-12.4c0-9.4,0.1-11.2,0.6-11.1c0.3,0.1,4.7,2.6,9.5,5.4c9.5,5.5,11,6,13.5,4.4c1.8-1.1,2.4-3.8,1.6-5.9c-0.6-1.4-1.8-2.3-10.2-7.1c-5.2-3-9.5-5.6-9.5-5.8c0-0.1,4.3-2.7,9.5-5.8c8.3-4.8,9.6-5.8,10.2-7.1c0.9-2,0.1-4.7-1.6-5.9c-2.4-1.6-3.9-1.2-13.4,4.4c-4.9,2.9-9.2,5.3-9.6,5.4c-0.6,0.2-0.7-1.1-0.7-11c0-12.3,0-12.6-2.8-14C192.3,157.2,191.8,157.2,189.9,158z" />
            </g>
        </g>
    </g>
</svg>