<?xml version="1.0" encoding="utf-8"?>
<!-- Svg Vector Icons : http://www.onlinewebfonts.com/icon -->
<!DOCTYPE svg PUBLIC "-//W3C//DTD SVG 1.1//EN" "http://www.w3.org/Graphics/SVG/1.1/DTD/svg11.dtd">
<svg version="1.1" xmlns="http://www.w3.org/2000/svg" xmlns:xlink="http://www.w3.org/1999/xlink" x="0px" y="0px"
	viewBox="0 0 256 256" enable-background="new 0 0 256 256" xml:space="preserve">
	<metadata> Svg Vector Icons : http://www.onlinewebfonts.com/icon </metadata>
	<g>
		<g>
			<g>
				<path fill="#000000"
					d="M21.2,25c-4.2,1-7.8,3.9-9.9,7.9L10,35.3v92.6v92.6l1.3,2.6c1.6,3.2,4.7,6,8,7.3c2.5,0.9,3.1,0.9,108.7,0.9s106.2,0,108.7-0.9c3.3-1.2,6.4-4.1,8-7.3l1.3-2.6v-92.6V35.3l-1.2-2.4c-1.7-3.2-4.1-5.5-7.3-7l-2.6-1.2l-106-0.1C68.2,24.6,22.2,24.8,21.2,25z M234.8,36l1.5,1.3l0.1,89.5c0.1,64,0,90-0.4,91.3c-0.3,1.2-1,2.1-2,2.6c-1.4,0.9-3.2,0.9-106.1,0.9s-104.7,0-106.1-0.9c-1-0.6-1.7-1.5-2-2.6c-0.4-1.2-0.5-27.2-0.4-91.3l0.1-89.5l1.5-1.3l1.5-1.3H128h105.3L234.8,36z" />
				<path fill="#000000"
					d="M101.9,45C66.3,50.1,38.3,76.6,31,112.2c-1,4.7-1.1,6.5-1.1,15.9c0,9.7,0.1,11.1,1.2,16.4c4.8,22.4,17.6,41.1,36.6,53.7c11.4,7.5,26.3,12.4,39.8,13.2c7.4,0.4,15.8-0.1,21.8-1.3c33.5-6.8,59.4-32.7,66-66.3c1.5-7.3,1.8-19.5,0.7-27.1c-1-7-3.3-15.4-5.7-21c-11.4-26.6-34.8-45.2-62.9-50.2C121.5,44.4,108,44.2,101.9,45z M120.4,54.5c12.7,1.4,23.6,5.4,34.2,12.3c6.1,4.1,15.6,13.5,19.6,19.5c9.2,13.9,13.6,29.1,12.8,44.8c-0.5,10.8-2.9,20-7.8,29.8c-10,20.3-28.8,34.6-51.7,39.5c-4.2,0.9-6.2,1.1-14.3,1.1c-8.1,0-10.2-0.1-14.3-1.1c-7-1.5-12.4-3.4-18.7-6.5c-7.3-3.6-13.2-7.9-19.2-13.9c-13.2-13.2-20.6-30.2-21.6-49c-0.7-15.7,3.8-31.5,12.9-45C56.3,80.4,66,70.8,71.7,67C86.5,57.1,103.9,52.7,120.4,54.5z" />
				<path fill="#000000"
					d="M108.5,64.7c-3.4,0.6-7.3,1.8-9.8,3.1c-3.2,1.6-7,5.4-8.5,8.4C89,78.7,89,79,89,85.7c0,7,0.9,13.1,3.4,23.6l0.9,3.7l-1.8,3.5c-1,1.9-2,4.6-2.4,6c-0.6,3-1.4,3.5-4.7,2.6c-3-0.8-6.3-2.6-13.6-7.3c-7.3-4.8-10.4-6.4-12.8-6.8c-7.9-1.2-12.1,7-10.5,20.2c1.8,15,7.8,27.8,16.6,36.2c7.2,6.7,14.5,8.3,21.8,4.7c4.5-2.3,12.1-8.1,20.5-15.9l3.9-3.6l3.3,0c2.9,0,4.3-0.3,8.6-1.5c1.1-0.3,2.7,2.6,3.1,5.4c0.1,1.4,0.1,7.5,0,13.6c-0.3,9.3-0.2,11.4,0.4,13.5c3.1,10.7,16.7,7.3,31.5-8c6.7-7,10.8-13.4,13.6-21.8c1.2-3.6,1.5-4.9,1.5-8.9c0-5.8-1.1-8.8-4.4-12.4c-3.5-3.8-11.2-7.5-25.4-12.1l-6.8-2.2l-1.4-2.5c-0.7-1.3-2.5-3.6-4-5.1l-2.6-2.6l0.8-1.6c1.3-2.4,5.5-5.2,13.3-9.2c11.8-6,14.9-8.5,15.4-12.6c0.8-5.8-6.3-12.3-17.9-16.4c-7.8-2.8-12.1-3.6-20.8-3.7C114.3,64.3,109.7,64.4,108.5,64.7z M129.8,75.4c7.6,2,16.4,5.9,16.9,7.5c0.1,0.3-3.3,2.3-7.6,4.5c-4.2,2.2-9.1,4.9-10.8,5.9c-3.8,2.5-7.4,6-8.5,8.5l-0.9,1.9l-3.8-0.2c-4.1-0.3-8.2,0.3-11.5,1.7l-2,0.8l-1.2-6.3c-1.8-9.1-2.4-16.1-1.7-18.5c1-3.3,5.2-5.9,11.3-7C114.5,73.6,125,74.1,129.8,75.4z M119.4,114.7c3,1.4,5.6,4,7.2,7.2c1.6,3.5,1.7,8.9,0.1,12.1c-2.6,5.4-6.9,8.3-12.7,8.6c-4.5,0.3-7.9-1-11.1-4.2c-3.3-3.3-4.2-5.7-4.2-10.5c0-3.3,0.2-4.3,1.2-6.2C103.8,114.3,112.1,111.3,119.4,114.7z M66.3,126.5c9.3,6.2,15.3,8.8,20.6,8.8h2.7l1.7,3.6c1.3,2.7,2.5,4.3,5.1,6.9l3.5,3.4l-4.7,4C83,163.5,79.5,165.2,75,163.2c-4.4-2-11.1-10.8-14-18.4c-2.7-6.9-4.8-19.2-3.9-22.6l0.3-1.2l2.2,1.2C60.8,122.9,63.8,124.8,66.3,126.5z M147.2,132.3c7.8,2.9,13,5.5,14.3,7.3c1.2,1.6,1.5,6.3,0.7,9.5c-0.7,2.8-3.6,9.1-5.7,12.2c-3.8,5.7-10.3,12-16.5,16.1c-5.3,3.5-5.3,3.6-4.8-4.8c0.8-14.7,0.2-20.6-2.6-25.5l-1.3-2.4l1.2-1.3c1.9-2.3,4.3-7.8,4.9-11.1l0.5-3l1.4,0.3C140.1,129.7,143.6,131,147.2,132.3z" />
				<path fill="#000000"
					d="M109.3,119.1c-2.3,1.1-5.2,4.3-5.5,6.4c-0.5,2.7,0,6,1.3,7.9c3.8,5.8,12.5,5.7,16.3,0c1.7-2.5,2-6.8,0.7-9.4C119.5,119,114.1,116.9,109.3,119.1z" />
				<path fill="#000000"
					d="M169.8,202.7c-1.7,1-2.7,3.5-2.3,5.3c0.2,0.6,0.9,1.8,1.7,2.4l1.4,1.3l25.3,0.1c17.1,0.1,25.8,0,27-0.4c3.6-1.1,4.8-5.1,2.3-7.9l-1.3-1.5l-26.3-0.1C172.2,201.8,171.1,201.9,169.8,202.7z" />
			</g>
		</g>
	</g>
</svg>