<?xml version="1.0" encoding="UTF-8" standalone="no"?>
<!-- Generator: Adobe Illustrator 19.0.0, SVG Export Plug-In . SVG Version: 6.00 Build 0)  -->

<svg
   xmlns:dc="http://purl.org/dc/elements/1.1/"
   xmlns:cc="http://creativecommons.org/ns#"
   xmlns:rdf="http://www.w3.org/1999/02/22-rdf-syntax-ns#"
   xmlns:svg="http://www.w3.org/2000/svg"
   xmlns="http://www.w3.org/2000/svg"
   xmlns:sodipodi="http://sodipodi.sourceforge.net/DTD/sodipodi-0.dtd"
   xmlns:inkscape="http://www.inkscape.org/namespaces/inkscape"
   version="1.1"
   id="Layer_1"
   x="0px"
   y="0px"
   viewBox="0 0 512 512"
   style="enable-background:new 0 0 512 512;"
   xml:space="preserve"
   sodipodi:docname="BoosterHeater2.svg"
   inkscape:version="0.92.4 (5da689c313, 2019-01-14)"><metadata
   id="metadata67"><rdf:RDF><cc:Work
       rdf:about=""><dc:format>image/svg+xml</dc:format><dc:type
         rdf:resource="http://purl.org/dc/dcmitype/StillImage" /><dc:title /></cc:Work></rdf:RDF></metadata><defs
   id="defs65" /><sodipodi:namedview
   pagecolor="#ffffff"
   bordercolor="#666666"
   borderopacity="1"
   objecttolerance="10"
   gridtolerance="10"
   guidetolerance="10"
   inkscape:pageopacity="0"
   inkscape:pageshadow="2"
   inkscape:window-width="1366"
   inkscape:window-height="715"
   id="namedview63"
   showgrid="false"
   inkscape:zoom="0.4609375"
   inkscape:cx="-111.72881"
   inkscape:cy="256"
   inkscape:window-x="-8"
   inkscape:window-y="-8"
   inkscape:window-maximized="1"
   inkscape:current-layer="Layer_1" />
<g
   id="g6"
   transform="translate(-34.711864,-39.050847)">
	<g
   id="g4">
		<polygon
   points="147.315,176.262 110.588,232.116 136.882,249.406 205.67,144.794 153.943,144.794 189.385,94.127 163.6,76.091 93.527,176.262 "
   id="polygon2" />
	</g>
</g>
<g
   id="g12">
	<g
   id="g10">
		<rect
   x="132.281"
   y="340.779"
   width="35.664"
   height="31.468"
   id="rect8" />
	</g>
</g>
<g
   id="g18">
	<g
   id="g16">
		<path
   d="M477.179,172.872v-63.768H365.811v63.768h-15.295v108.012h55.244v169.557c0,16.592-13.5,30.092-30.092,30.092H204.195    c-22.482,0-40.773-18.291-40.773-40.772V422.71H280.7V0H19.527v422.709h112.428v17.05c0,39.834,32.407,72.24,72.241,72.24h171.473    c33.945,0,61.56-27.615,61.56-61.56V280.884h55.244V172.872H477.179z M50.995,31.468h198.238v260.019H50.995V31.468z     M50.995,391.241v-68.287h198.238v68.287H50.995z M397.279,140.572h48.432v32.3h-48.432V140.572z M461.004,249.416h-79.02v-45.077    h79.02V249.416z"
   id="path14" />
	</g>
</g>
<g
   id="g24">
	<g
   id="g22">
		<rect
   x="402.75"
   y="148.907"
   width="15.438"
   height="13.322"
   id="rect20" />
	</g>
</g>
<g
   id="g30">
	<g
   id="g28">
		<rect
   x="424.798"
   y="148.907"
   width="15.438"
   height="13.322"
   id="rect26" />
	</g>
</g>
<g
   id="g32">
</g>
<g
   id="g34">
</g>
<g
   id="g36">
</g>
<g
   id="g38">
</g>
<g
   id="g40">
</g>
<g
   id="g42">
</g>
<g
   id="g44">
</g>
<g
   id="g46">
</g>
<g
   id="g48">
</g>
<g
   id="g50">
</g>
<g
   id="g52">
</g>
<g
   id="g54">
</g>
<g
   id="g56">
</g>
<g
   id="g58">
</g>
<g
   id="g60">
</g>
<text
   xml:space="preserve"
   style="font-style:normal;font-variant:normal;font-weight:bold;font-stretch:normal;font-size:164.62142944px;line-height:1.25;font-family:'Comic Sans MS';-inkscape-font-specification:'Comic Sans MS, Bold';font-variant-ligatures:normal;font-variant-caps:normal;font-variant-numeric:normal;font-feature-settings:normal;text-align:start;letter-spacing:0px;word-spacing:0px;writing-mode:lr-tb;text-anchor:start;fill:#000000;fill-opacity:1;stroke:none;stroke-width:1"
   x="134.92363"
   y="281.16605"
   id="text4579"
   transform="scale(0.9976583,1.0023472)"><tspan
     sodipodi:role="line"
     id="tspan4577"
     x="134.92363"
     y="281.16605"
     style="font-style:normal;font-variant:normal;font-weight:bold;font-stretch:normal;font-size:164.62142944px;font-family:'Comic Sans MS';-inkscape-font-specification:'Comic Sans MS, Bold';font-variant-ligatures:normal;font-variant-caps:normal;font-variant-numeric:normal;font-feature-settings:normal;text-align:start;writing-mode:lr-tb;text-anchor:start;stroke-width:0.187171">2</tspan></text>

</svg>