<svg height='100px' width='100px'  fill="#000000" xmlns="http://www.w3.org/2000/svg" xmlns:xlink="http://www.w3.org/1999/xlink" version="1.1" x="0px" y="0px" viewBox="0 0 100 100" enable-background="new 0 0 100 100" xml:space="preserve"><path fill="#000000" d="M86.126,24.697c-0.027-0.062-0.07-0.114-0.108-0.168c-0.032-0.048-0.059-0.105-0.097-0.146  c-0.092-0.092-0.2-0.165-0.324-0.216l-0.622-0.259c-1.118-0.468-2.231-0.93-3.323-1.397c-0.021-0.011-0.044-0.005-0.07-0.013  c-0.06-0.022-0.119-0.03-0.184-0.038c-0.065-0.008-0.125-0.019-0.189-0.016c-0.06,0.005-0.113,0.021-0.179,0.035  c-0.06,0.016-0.124,0.032-0.184,0.06c-0.021,0.011-0.043,0.011-0.064,0.021c-2.584,1.467-5.184,2.929-7.777,4.378v-5.019  c0-0.038-0.017-0.07-0.021-0.105c-0.006-0.062-0.017-0.122-0.038-0.181c-0.017-0.065-0.043-0.122-0.075-0.179  c-0.027-0.054-0.06-0.1-0.098-0.148c-0.043-0.051-0.087-0.095-0.141-0.138c-0.027-0.021-0.043-0.054-0.075-0.073l-2.821-1.854  c-0.373-0.241-0.838-0.184-1.157,0.089c-0.032,0.011-0.06,0.019-0.086,0.035c-0.011,0.006-0.021,0-0.032,0.006l-0.741,0.462  c-0.778,0.486-1.567,0.978-2.34,1.438c-0.021,0.014-0.032,0.043-0.054,0.06c-0.098,0.067-0.179,0.151-0.243,0.249  c-0.022,0.035-0.049,0.062-0.07,0.1c-0.065,0.132-0.114,0.275-0.114,0.435v9.447l-4.123,2.383v-5.688  c0-0.03-0.011-0.057-0.017-0.086c-0.005-0.051-0.016-0.103-0.032-0.154c-0.017-0.076-0.038-0.146-0.076-0.214  c-0.011-0.016-0.011-0.038-0.021-0.054c-0.016-0.03-0.043-0.046-0.064-0.07c-0.043-0.06-0.092-0.116-0.146-0.165  c-0.049-0.038-0.098-0.067-0.146-0.097c-0.06-0.03-0.113-0.06-0.173-0.078c-0.064-0.022-0.13-0.033-0.194-0.041  c-0.038-0.003-0.07-0.022-0.113-0.022c-0.022,0-0.044,0.014-0.07,0.014c-0.06,0.005-0.119,0.021-0.185,0.038  c-0.064,0.019-0.129,0.038-0.188,0.068c-0.021,0.011-0.044,0.011-0.065,0.024c-0.005,0.002-0.216,0.135-0.222,0.138l-0.248,0.154  c-1.481,0.968-2.935,1.9-4.405,2.84v-4.578c2.768-1.589,5.513-3.156,8.274-4.721c0.017-0.008,0.017-0.03,0.033-0.038  c0.194-0.122,0.335-0.303,0.405-0.524c0.011-0.03,0.011-0.054,0.021-0.083c0.011-0.07,0.038-0.135,0.038-0.208V16.66  c0-0.038-0.017-0.07-0.022-0.105c-0.005-0.076-0.016-0.146-0.043-0.216c-0.016-0.054-0.043-0.1-0.07-0.151  c-0.032-0.057-0.064-0.111-0.113-0.162c-0.043-0.054-0.098-0.095-0.151-0.135c-0.032-0.024-0.049-0.057-0.087-0.076  c-0.702-0.411-1.404-0.808-2.118-1.21l-0.908-0.513c-0.011-0.008-0.026-0.006-0.037-0.014c-0.06-0.03-0.125-0.041-0.185-0.06  c-0.059-0.016-0.118-0.041-0.178-0.043c-0.055-0.006-0.113,0.008-0.168,0.011c-0.07,0.008-0.141,0.011-0.211,0.032  c-0.011,0.003-0.026,0-0.037,0.005c-0.104,0.035-0.189,0.084-0.373,0.181c-1.173,0.673-2.356,1.335-3.54,1.997l-0.692,0.389V7.667  c0-0.054-0.021-0.103-0.032-0.154c-0.005-0.03-0.011-0.054-0.016-0.083c-0.06-0.225-0.189-0.411-0.373-0.543  c-0.011-0.011-0.011-0.03-0.027-0.041L52.932,6.28c-0.833-0.543-1.677-1.091-2.521-1.626c-0.373-0.238-0.835-0.181-1.154,0.092  c-0.041,0.019-0.083,0.027-0.122,0.051c-0.002,0.003-0.008,0-0.011,0.003c-1.046,0.689-2.121,1.375-3.167,2.038  c-0.024,0.016-0.032,0.043-0.054,0.059c-0.089,0.068-0.165,0.146-0.227,0.241c-0.021,0.035-0.048,0.065-0.067,0.103  c-0.065,0.13-0.108,0.273-0.108,0.427v8.92l-4.432-2.497c-0.011-0.006-0.021-0.006-0.029-0.011c-0.07-0.035-0.144-0.051-0.219-0.07  c-0.048-0.011-0.097-0.033-0.146-0.038c-0.064-0.005-0.127,0.011-0.194,0.016c-0.062,0.008-0.125,0.008-0.184,0.027  c-0.014,0.002-0.024,0-0.038,0.005c-0.076,0.027-0.151,0.062-0.356,0.157l-2.8,1.416c-0.021,0.011-0.03,0.035-0.049,0.046  c-0.119,0.07-0.216,0.162-0.294,0.273c-0.024,0.032-0.048,0.062-0.07,0.1c-0.073,0.138-0.127,0.29-0.127,0.457v3.929  c0,0.162,0.049,0.308,0.119,0.443c0.019,0.035,0.043,0.065,0.067,0.1c0.07,0.1,0.154,0.184,0.257,0.254  c0.021,0.016,0.032,0.043,0.057,0.057c2.767,1.565,5.534,3.132,8.301,4.721v4.629c-1.578-0.951-3.146-1.902-4.731-2.878  c-0.021-0.014-0.046-0.014-0.067-0.024c-0.06-0.03-0.119-0.051-0.184-0.067c-0.065-0.019-0.124-0.035-0.189-0.041  c-0.027,0-0.046-0.014-0.073-0.014c-0.038,0-0.073,0.019-0.108,0.021c-0.067,0.008-0.13,0.019-0.195,0.041  c-0.059,0.019-0.113,0.046-0.167,0.076c-0.054,0.03-0.105,0.062-0.154,0.103c-0.051,0.043-0.095,0.094-0.135,0.146  c-0.024,0.029-0.057,0.048-0.076,0.081c-0.011,0.016-0.005,0.035-0.016,0.054c-0.076,0.138-0.13,0.289-0.13,0.459v5.283  l-4.515-2.586v-9.447c0-0.048-0.022-0.089-0.027-0.135c-0.008-0.06-0.016-0.116-0.035-0.176c-0.024-0.067-0.057-0.125-0.092-0.184  c-0.027-0.049-0.054-0.095-0.092-0.138c-0.051-0.059-0.108-0.103-0.17-0.148c-0.03-0.021-0.048-0.051-0.081-0.07l-0.854-0.486  c-0.743-0.416-1.491-0.84-2.227-1.275c-0.367-0.219-0.813-0.16-1.124,0.1c-0.027,0.013-0.06,0.016-0.084,0.029  c-0.478,0.273-0.964,0.541-1.451,0.808c-0.497,0.273-0.994,0.543-1.48,0.824c-0.024,0.014-0.033,0.038-0.054,0.054  c-0.103,0.07-0.187,0.154-0.257,0.254c-0.024,0.035-0.051,0.065-0.07,0.103c-0.067,0.135-0.116,0.281-0.116,0.44v4.897l-7.274-4.143  c-0.008-0.006-0.019-0.006-0.027-0.008c-0.062-0.035-0.13-0.046-0.197-0.067c-0.057-0.014-0.108-0.041-0.165-0.046  c-0.06-0.005-0.119,0.011-0.178,0.014c-0.067,0.005-0.132,0.005-0.197,0.024c-0.278-0.021-0.535,0.1-0.732,0.316l-3.194,1.473  c-0.014,0.008-0.022,0.024-0.035,0.03c-0.133,0.07-0.243,0.173-0.333,0.294c-0.024,0.032-0.046,0.062-0.065,0.1  c-0.078,0.14-0.135,0.292-0.135,0.464v4.151c0,0.16,0.046,0.303,0.114,0.435c0.019,0.038,0.046,0.067,0.07,0.103  c0.065,0.098,0.146,0.179,0.24,0.249c0.024,0.016,0.033,0.043,0.057,0.057l7.478,4.445c-1.381,0.765-2.756,1.532-4.146,2.327  c-0.024,0.013-0.035,0.043-0.06,0.059c-0.097,0.068-0.181,0.149-0.249,0.249c-0.024,0.035-0.051,0.064-0.07,0.105  c-0.068,0.133-0.116,0.278-0.116,0.438v3.6c0,0.154,0.043,0.294,0.105,0.421c0.016,0.035,0.043,0.065,0.065,0.097  c0.06,0.092,0.13,0.173,0.216,0.241c0.021,0.016,0.03,0.043,0.051,0.057c0.449,0.297,0.881,0.608,1.313,0.921  c0.411,0.294,0.832,0.589,1.292,0.892c0.024,0.022,0.051,0.035,0.076,0.054c0.021,0.014,0.038,0.024,0.057,0.038  c0.008,0.008,0.024,0.005,0.035,0.013c0.17,0.157,0.387,0.238,0.616,0.246c0.027,0.002,0.046,0.008,0.073,0.005  c0.151-0.005,0.3-0.032,0.44-0.111c2.805-1.573,5.637-3.148,8.472-4.724l4.283,2.246c-1.486,0.854-2.991,1.721-4.594,2.654  l0.005,0.011c-0.135,0.078-0.257,0.178-0.346,0.319c-0.103,0.16-0.151,0.34-0.151,0.519c0,0.327,0.165,0.646,0.462,0.832  l4.656,2.911c-1.454,0.916-2.905,1.832-4.348,2.748c-1.905-1.113-3.815-2.237-5.715-3.359l-2.708-1.597  c-0.008-0.005-0.019-0.005-0.027-0.011c-0.062-0.032-0.132-0.046-0.2-0.067c-0.054-0.017-0.108-0.041-0.165-0.046  c-0.054-0.005-0.111,0.006-0.167,0.011c-0.07,0.002-0.141,0.002-0.21,0.024c-0.008,0.003-0.019,0-0.03,0.003  c-0.149,0.049-0.254,0.113-0.397,0.187l-1.162,0.643c-0.554,0.303-1.1,0.603-1.64,0.911c-0.024,0.014-0.035,0.043-0.057,0.06  c-0.1,0.067-0.181,0.148-0.249,0.249c-0.024,0.035-0.051,0.067-0.07,0.105c-0.068,0.132-0.116,0.278-0.116,0.438v3.763  c0,0.162,0.048,0.309,0.119,0.443c0.019,0.038,0.043,0.07,0.07,0.103c0.07,0.104,0.154,0.189,0.26,0.26  c0.021,0.011,0.029,0.038,0.054,0.054l4.294,2.411c-2.594,1.486-5.191,2.967-7.785,4.426c-0.024,0.017-0.032,0.043-0.057,0.06  c-0.1,0.065-0.184,0.151-0.254,0.249c-0.024,0.037-0.052,0.064-0.073,0.107c-0.067,0.136-0.116,0.276-0.116,0.438v3.961  c0,0.157,0.046,0.298,0.111,0.433c0.021,0.038,0.049,0.064,0.07,0.103c0.065,0.098,0.141,0.173,0.232,0.243  c0.024,0.017,0.032,0.043,0.059,0.06l3.129,1.908c0.022,0.016,0.243,0.141,0.271,0.151c0.024,0.011,0.048,0.011,0.073,0.021  c0.067,0.026,0.135,0.038,0.208,0.049c0.035,0.005,0.07,0.011,0.105,0.011c0.173,0.011,0.346-0.011,0.508-0.098  c2.7-1.454,5.391-2.907,8.072-4.367v5.329c0,0.173,0.057,0.324,0.135,0.465c0.019,0.038,0.041,0.065,0.065,0.103  c0.086,0.119,0.192,0.217,0.322,0.287c0.016,0.005,0.024,0.026,0.04,0.032c0.575,0.272,1.157,0.529,1.736,0.786  c0.508,1.144,1.095,2.265,1.85,3.326c0.206,0.276,0.39,0.552,0.573,0.773l0.313,0.416c0.129,0.222,0.259,0.384,0.389,0.551  c0.567,0.859,1.01,1.8,1.27,2.795c0.238,0.913,0.34,1.632,0.34,2.323c0,0.114,0,0.249,0,0.39c0,2.432-0.778,4.54-2.34,6.502  c-1.378,1.686-1.248,3.485,0.389,4.923c0.103,0.168,0.232,0.249,0.341,0.362c0.962,0.719,2.026,1.081,3.172,1.081  c0.178,0,0.335,0,0.519,0c1.352-0.087,2.546-0.665,3.432-1.665c2.778-3.426,4.156-7.166,4.081-11.203  c0-1.162-0.076-2.216-0.232-3.103c0-0.027-0.027-0.027-0.027-0.027V78.52c-0.168-0.725-0.389-1.405-0.597-2.097l3.324-1.844v8.907  c0,0.156,0.043,0.297,0.105,0.427c0.017,0.032,0.043,0.06,0.062,0.092c0.062,0.098,0.138,0.179,0.227,0.249  c0.021,0.016,0.027,0.037,0.048,0.054l1.493,0.973c-0.385,0.943-0.897,1.854-1.582,2.702c-1.352,1.578-1.146,3.627,0.47,5.064  c0,0.027,0.205,0.168,0.205,0.168c0.886,0.719,2.081,1.135,3.248,1.135c0.157,0,0.313,0,0.47,0c1.429-0.087,2.677-0.692,3.434-1.692  c2.729-3.345,4.161-7.193,4.161-11.176c0-0.887-0.107-1.827-0.313-2.876c0-0.032,0-0.032,0-0.032  c-0.17-0.967-0.375-1.745-0.616-2.48c0.546,0.308,1.076,0.603,1.648,0.93c0.065,0.038,0.243,0.124,0.313,0.146  c0.011,0.006,0.017,0,0.027,0.006c0.075,0.021,0.156,0.021,0.237,0.026c0.044,0,0.087,0.012,0.13,0.012  c0.136-0.017,0.271-0.049,0.395-0.119c0.587-0.335,1.151-0.665,1.725-1c0.021,0.027,0.026,0.049,0.026,0.075  c0.52,0.746,0.936,1.659,1.249,2.768c0.205,0.887,0.313,1.687,0.313,2.546c0,2.351-0.784,4.513-2.395,6.501  c-1.405,1.773-1.248,3.514,0.471,5.011c0.075,0.107,0.178,0.194,0.259,0.248c0.962,0.746,2.027,1.108,3.173,1.108  c0.178,0,0.335,0,0.519,0c1.427-0.087,2.546-0.638,3.48-1.692c2.735-3.399,4.113-7.166,4.113-11.176  c0-0.968-0.136-1.827-0.238-2.768h-0.026c0-0.081,0-0.141,0-0.194c-0.206-1.108-0.52-2.211-0.936-3.237h-0.027c0,0,0,0,0-0.027  c-0.47-1.259-1.104-2.386-1.843-3.453c0.206,0.005,0.414-0.011,0.584-0.13c0.006,0,0.006,0,0.006,0  c0.907-0.633,1.843-1.265,2.751-1.87c0.016-0.006,0.016-0.027,0.026-0.038c0.184-0.135,0.309-0.318,0.368-0.546  c0.005-0.026,0.011-0.049,0.016-0.081c0.006-0.049,0.027-0.097,0.027-0.151v-5.134l2.005,1.162c1.94,1.113,3.87,2.227,5.788,3.351  c0.032,0.021,0.07,0.021,0.103,0.038c0.065,0.026,0.125,0.048,0.189,0.06c0.06,0.016,0.119,0.021,0.179,0.021  c0.064,0.005,0.13,0,0.188-0.011c0.065-0.011,0.125-0.027,0.179-0.049c0.038-0.017,0.081-0.017,0.113-0.032l3.627-1.887  c0.043-0.021,0.07-0.054,0.103-0.081c0.06-0.043,0.113-0.081,0.162-0.13c0.043-0.049,0.07-0.103,0.103-0.151  c0.032-0.06,0.07-0.113,0.092-0.173s0.027-0.113,0.032-0.173c0.011-0.054,0.033-0.103,0.033-0.156v-4.205  c0-0.043-0.017-0.081-0.022-0.124c-0.011-0.07-0.021-0.141-0.043-0.206c-0.021-0.06-0.054-0.107-0.081-0.156  c-0.032-0.06-0.064-0.113-0.108-0.162c-0.048-0.055-0.103-0.092-0.156-0.13c-0.038-0.027-0.06-0.064-0.103-0.087l-2.838-1.54  c-1.675-0.908-3.34-1.815-5.01-2.729c1.448-0.811,2.892-1.626,4.34-2.421c0.038-0.021,0.06-0.054,0.098-0.081  c0.054-0.043,0.107-0.081,0.156-0.135c0.044-0.044,0.076-0.098,0.103-0.151c0.033-0.055,0.065-0.103,0.087-0.162  c0.021-0.065,0.032-0.13,0.038-0.2c0.011-0.043,0.026-0.081,0.026-0.13v-3.874c0-0.073-0.026-0.135-0.037-0.203  c-0.011-0.046-0.011-0.095-0.033-0.138c-0.026-0.078-0.075-0.143-0.118-0.21c-0.027-0.038-0.049-0.079-0.076-0.111  c-0.06-0.06-0.124-0.103-0.194-0.146c-0.038-0.024-0.06-0.06-0.103-0.078c-1.098-0.522-2.168-1.068-3.237-1.619  c-0.032-0.019-0.07-0.016-0.103-0.029c-0.065-0.022-0.119-0.041-0.185-0.052c-0.064-0.011-0.129-0.013-0.188-0.011  c-0.065,0.003-0.119,0.008-0.179,0.022c-0.07,0.013-0.13,0.038-0.194,0.067c-0.032,0.014-0.065,0.014-0.098,0.032l-0.476,0.281  c-2.583,1.524-5.155,3.043-7.718,4.545c-1.378-0.792-2.751-1.586-4.118-2.378c0.53-0.324,1.049-0.651,1.578-0.975  c1.017-0.622,2.026-1.243,3.037-1.873c0.011-0.008,0.022-0.024,0.033-0.032c0.032-0.021,0.054-0.046,0.081-0.067  c0.043-0.035,0.075-0.073,0.107-0.111c0.027-0.035,0.06-0.065,0.081-0.103c0.006-0.011,0.021-0.019,0.027-0.032  c0.005-0.011,0-0.024,0.005-0.035c0.027-0.049,0.049-0.1,0.065-0.157c0.021-0.062,0.032-0.125,0.038-0.189  c0.005-0.035,0.021-0.068,0.021-0.105c0-0.027-0.011-0.049-0.017-0.076c0-0.051-0.011-0.1-0.021-0.149  c-0.005-0.024-0.011-0.041-0.021-0.062c-0.017-0.06-0.038-0.113-0.065-0.167c-0.011-0.021-0.011-0.043-0.026-0.065  c-0.017-0.03-0.043-0.043-0.065-0.07c-0.043-0.057-0.092-0.108-0.146-0.157c-0.038-0.03-0.07-0.057-0.113-0.081  c-0.011-0.005-0.011-0.019-0.017-0.024l-1.815-1.04c-1.021-0.589-2.049-1.173-3.075-1.754c1.335-0.781,2.696-1.567,4.118-2.383  c2.643,1.564,5.329,3.159,8.155,4.826l0.006-0.011c0.297,0.194,0.686,0.232,1.01,0.048c1.13-0.632,2.292-1.267,3.422-1.873  c0.037-0.021,0.064-0.06,0.103-0.083c0.054-0.043,0.108-0.081,0.156-0.135c0.044-0.046,0.07-0.097,0.103-0.148  c0.033-0.054,0.065-0.108,0.087-0.17c0.021-0.065,0.032-0.132,0.043-0.2c0.006-0.043,0.021-0.081,0.021-0.127v-3.875  c0-0.041-0.016-0.076-0.021-0.113c-0.011-0.081-0.016-0.16-0.048-0.232c-0.017-0.054-0.055-0.1-0.082-0.146  c-0.032-0.06-0.064-0.119-0.113-0.167c-0.043-0.051-0.103-0.089-0.162-0.13c-0.037-0.027-0.064-0.065-0.107-0.086l-0.552-0.278  c-1.281-0.648-2.562-1.286-3.843-1.927l8.074-4.416c0.033-0.019,0.055-0.051,0.087-0.076c0.064-0.043,0.124-0.086,0.173-0.143  c0.038-0.043,0.064-0.092,0.092-0.141c0.038-0.06,0.07-0.114,0.092-0.178c0.021-0.062,0.032-0.127,0.038-0.192  c0.011-0.046,0.027-0.084,0.027-0.13v-4.234c0-0.003,0-0.003,0-0.003C86.202,24.94,86.175,24.813,86.126,24.697z M56.893,61.803  c-0.084,0.725-0.173,1.448-0.156,2.189c-0.021,0.896,0.037,1.783,0.167,2.656l-2.497-1.419v-4.762  c0.535,0.287,1.07,0.573,1.601,0.859C56.304,61.489,56.596,61.641,56.893,61.803z M46.177,40.681c0.167,0,0.306,0,0.443,0  c1.967,0,3.929,0,5.922,0c1.054,1.548,2.103,3.126,3.156,4.675c-1,1.662-1.994,3.321-3.016,5.01c-1.966,0-3.931,0-5.922,0  c-0.141,0-0.278,0-0.417,0c-0.967-1.689-1.938-3.348-2.878-5.01C44.38,43.807,45.264,42.229,46.177,40.681z M36.819,91.636  c-0.389,0.443-0.881,0.72-1.535,0.72c-0.649,0.086-1.167-0.081-1.611-0.39c-0.048-0.108-0.13-0.189-0.232-0.275  c-0.886-0.746-0.935-1.411-0.21-2.297c1.848-2.297,2.783-4.896,2.783-7.664c0.081-1.216-0.184-2.432-0.389-3.21c0,0,0,0,0-0.027  c-0.34-1.216-0.859-2.351-1.562-3.404c-0.021-0.027-0.049-0.027-0.076-0.055l0.027-0.026c-0.103-0.108-0.184-0.222-0.34-0.443  l-0.335-0.471c-0.184-0.275-0.389-0.551-0.6-0.832c-0.413-0.573-0.762-1.179-1.09-1.786c-1.221-2.262-1.871-4.731-1.871-7.261  c0-3.486,1.249-6.945,3.61-9.934c0.389-0.443,0.935-0.72,1.616-0.746c0.751-0.081,1.297,0.222,1.789,0.638  c0.784,0.665,0.886,1.546,0.265,2.324c-0.536,0.656-0.977,1.356-1.365,2.075c-0.428,0.792-0.743,1.618-0.983,2.464  c-0.294,1.035-0.489,2.095-0.489,3.179c0,1.15,0.183,2.251,0.489,3.315c0.336,1.17,0.863,2.28,1.566,3.337  c0.119,0.179,0.211,0.368,0.339,0.541c0,0,0.027,0,0.027,0.032c0,0,0,0,0.021,0c0.265,0.329,0.47,0.632,0.729,1.021  c0.833,1.107,1.508,2.297,2.005,3.513c0.111,0.33,0.2,0.708,0.308,1.06c0.191,0.616,0.397,1.222,0.546,1.875  c0.129,0.8,0.21,1.687,0.21,2.794C40.51,85.329,39.316,88.566,36.819,91.636z M38.185,69.272c-0.905-1.546-1.393-3.232-1.393-5.059  c0-2.324,0.818-4.537,2.345-6.459v4.869c0,0.168,0.054,0.319,0.13,0.46c0.011,0.017,0.005,0.038,0.016,0.054  c0.019,0.032,0.051,0.049,0.076,0.081c0.041,0.049,0.084,0.098,0.135,0.146c0.049,0.037,0.1,0.07,0.154,0.103  c0.054,0.027,0.108,0.054,0.167,0.075c0.062,0.021,0.127,0.033,0.195,0.038c0.035,0.006,0.07,0.021,0.108,0.021  c0.024,0,0.046-0.011,0.073-0.011c0.062-0.005,0.124-0.021,0.187-0.038c0.064-0.021,0.127-0.037,0.187-0.07  c0.021-0.011,0.046-0.011,0.067-0.026c0.478-0.292,0.948-0.573,1.423-0.865c-0.04,0.476-0.123,0.946-0.123,1.427  c0,1.011,0.111,2.006,0.286,2.983C40.876,67.765,39.531,68.519,38.185,69.272z M51.546,91.469c-0.335,0.416-0.854,0.691-1.507,0.691  c-0.622,0.087-1.243-0.107-1.843-0.605c-0.778-0.691-0.886-1.578-0.232-2.323c0.683-0.838,1.2-1.729,1.636-2.638  c0.777-1.616,1.204-3.321,1.168-5.059c0.055-0.968-0.048-1.989-0.334-3.016c0-0.027,0-0.027,0-0.027  c-0.341-1.243-0.811-2.324-1.486-3.318c0,0,0,0,0-0.027c0-0.026-0.022-0.026-0.022-0.059c-0.129-0.222-0.313-0.443-0.497-0.746  l-0.335-0.416c-0.211-0.303-0.416-0.605-0.6-0.854c-1.64-2.318-2.574-4.815-2.86-7.429c-0.058-0.537-0.128-1.072-0.128-1.624  c0-1.075,0.141-2.11,0.353-3.129c0.502-2.405,1.567-4.664,3.285-6.805c0.389-0.47,0.886-0.719,1.589-0.772  c0.648-0.054,1.167,0.108,1.843,0.638c0.888,0.772,0.964,1.465,0.212,2.351c-1.876,2.352-2.838,4.924-2.838,7.718  c0,2.633,0.811,5.037,2.394,7.199c0.027,0,0.027,0,0.027,0c0.026,0,0.026,0.027,0.026,0.027c0.262,0.329,0.493,0.632,0.726,1.021  c0.887,1.135,1.562,2.351,2.081,3.707c0,0,0,0,0,0.027c0.017,0.038,0.027,0.089,0.043,0.127c0.313,0.751,0.538,1.621,0.735,2.754  c0,0.026,0,0.026,0,0.026c0.184,0.968,0.286,1.8,0.286,2.573C55.266,85.021,53.996,88.453,51.546,91.469z M69.788,78.822  c0,0.06,0.027,0.086,0.027,0.113h-0.027c0.103,0.859,0.211,1.687,0.211,2.546c0,3.626-1.2,6.891-3.616,9.934  c-0.442,0.523-0.886,0.745-1.61,0.745c-0.627,0.087-1.118-0.081-1.616-0.41c-0.048-0.087-0.103-0.141-0.178-0.222  c-0.914-0.778-0.989-1.384-0.26-2.329c1.897-2.352,2.832-4.951,2.832-7.718c0-0.995-0.103-1.968-0.362-3.017  c-0.026-0.026-0.026-0.026-0.026-0.026c-0.341-1.275-0.833-2.297-1.433-3.211c-0.027-0.054-0.049-0.107-0.075-0.14  c0,0,0,0-0.027-0.027c-0.103-0.194-0.184-0.33-0.313-0.497l-0.135-0.189l-0.022-0.032c-0.286-0.39-0.567-0.8-0.881-1.271  c-1.086-1.497-1.848-3.069-2.34-4.699c-0.427-1.416-0.651-2.872-0.627-4.38c-0.006-0.289,0.049-0.567,0.06-0.854  c0.089-2.075,0.6-4.042,1.551-5.918c0.055-0.105,0.092-0.211,0.146-0.313c0.513-0.959,1.107-1.902,1.858-2.821  c0.417-0.47,0.908-0.719,1.535-0.772c0.648-0.054,1.194,0.108,1.843,0.638c0.887,0.772,0.962,1.465,0.238,2.351  c-0.711,0.881-1.243,1.816-1.681,2.781c-0.705,1.548-1.103,3.186-1.103,4.91c-0.076,2.604,0.729,5.037,2.367,7.139v0.027  l0.751,1.108c0.887,1.135,1.535,2.351,2.054,3.707c0,0,0,0,0.027,0c0,0,0,0,0,0.027C69.318,76.887,69.604,77.882,69.788,78.822z"></path></svg>