<svg height="512" viewBox="0 0 60 52" width="512" xmlns="http://www.w3.org/2000/svg"><g id="Page-1" fill="none" fill-rule="evenodd"><g id="021---Water-Filter" fill="rgb(0,0,0)" fill-rule="nonzero"><path id="Shape" d="m3 52h26.442c14.513 0 26.426-11.554 26.558-25.756.03132-2.7982498-.3942745-5.5828532-1.26-8.244h2.26c1.6568542 0 3-1.3431458 3-3v-12c0-1.65685425-1.3431458-3-3-3h-26.442c-14.513 0-26.426 11.554-26.558 25.756-.03131996 2.7982498.39427446 5.5828532 1.26 8.244h-2.26c-1.65685425 0-3 1.3431458-3 3v12c0 1.6568542 1.34314575 3 3 3zm-1-15c0-.5522847.44771525-1 1-1h3.68c.33052387.0001987.63979519-.1629353.82626456-.4358368s.22604621-.6203136.10573544-.9281632c-1.10038969-2.8233702-1.64765705-5.8319826-1.612-8.862.122-13.109 11.138-23.774 24.558-23.774h26.442c.5522847 0 1 .44771525 1 1v12c0 .5522847-.4477153 1-1 1h-3.68c-.3305239-.0001987-.6397952.1629353-.8262646.4358368-.1864693.2729015-.2260462.6203136-.1057354.9281632 1.1003897 2.8233702 1.6476571 5.8319826 1.612 8.862-.122 13.109-11.138 23.774-24.558 23.774h-26.442c-.55228475 0-1-.4477153-1-1z"/><path id="Shape" d="m11.9 29.233-.852.352c-1.59334922.662733-2.35041997 2.4894513-1.693 4.085.34379603.8216224 1.0163001 1.4614806 1.854 1.764 1.0136271.3351245 2.0754509.5013407 3.143.492.05 0 .1-.005.153-.005l-.648.647c-.5919658.5848462-.9251337 1.382353-.9251337 2.2145s.3331679 1.6296538.9251337 2.2145c.5900623.5842172 1.386649.9122658 2.217.913h.165c1.112049-.0867056 2.201418-.3609075 3.222-.811l-.354.858c-.6429389 1.5946673.1143917 3.4100334 1.7 4.075.3802039.1584198.7881123.2396616 1.2.239.4698298.0006169.9338399-.1039392 1.358-.306.9977823-.5003537 1.9017173-1.1691709 2.672-1.977v.912c.0022037 1.7277376 1.4022624 3.1277963 3.13 3.13.8901062-.0053153 1.7368842-.384968 2.333-1.046.7225309-.851248 1.297169-1.8176541 1.7-2.859l.354.857c.4818264 1.1683857 1.6201649 1.9313567 2.884 1.933 1.328972-.0013218 2.5127054-.8404341 2.954-2.094.3471581-1.0646703.511482-2.1804499.486-3.3l.663.663c.8914415.8921138 2.2322984 1.1598176 3.3979656.6784082 1.1656671-.4814094 1.9268753-1.6172459 1.9290344-2.8784082v-.2c-.0863159-1.1141536-.3608717-2.2056146-.812-3.228l.861.357c.3771824.1566163.7815943.2371588 1.19.237 1.2608869.0027407 2.4007129-.7501827 2.893-1.911.1602232-.3828076.2415137-.794022.239-1.209.0004142-.4698074-.1041318-.9337732-.306-1.358-.5004999-.9984755-1.170434-1.9025481-1.98-2.672h.917c1.7279658-.0016538 3.1283462-1.4020342 3.13-3.13-.0041847-.8912938-.3835175-1.7396199-1.045-2.337-.8522172-.7237719-1.8204836-1.298511-2.864-1.7l.86-.356c1.1983877-.4947602 1.9668114-1.6781062 1.9312919-2.9741228-.0355194-1.2960165-.8676041-2.435498-2.0912919-2.8638772-1.0647849-.34667-2.1804809-.5109816-3.3-.486l.653-.653c.8941392-.8922787 1.1631631-2.2351109.681753-3.4029682-.4814102-1.1678572-1.6185676-1.9310381-2.881753-1.9340318h-.185c-1.112624.0857724-2.2026954.3593046-3.224.809l.355-.864c.6477676-1.59524424-.1108155-3.414505-1.7-4.077-.82661-.33522201-1.7556237-.3102115-2.563.069-.9952729.50499055-1.8971886 1.17593191-2.667 1.984v-.924c-.0016538-1.72796577-1.4020342-3.12834618-3.13-3.13-.8890594.00615619-1.7345871.38573643-2.33 1.046-.7223274.85102246-1.29695 1.81706448-1.7 2.858l-.354-.856c-.4952694-1.19640827-1.6768857-1.96362475-2.9712977-1.92924608-1.2944121.03437866-2.4336378.86323504-2.8647023 2.08424608-.3533878 1.06674716-.5195054 2.18660343-.491 3.31l-.66-.66c-1.2201089-1.21689633-3.1948911-1.21689633-4.415 0-.5856453.5820836-.9140507 1.3742897-.912 2.2v.185c.0868463 1.1176265.3634707 2.2122881.818 3.237l-.867-.356c-1.591965-.6603348-3.4180893.0919407-4.083 1.682-.15883148.3800784-.24008992.7880706-.239 1.2-.00041422.4698074.10413184.9337732.306 1.358.5002945.9980795 1.1694969 1.9020779 1.978 2.672h-.915c-1.2974039.0011351-2.45979622.8020639-2.92292027 2.0139939-.46312405 1.2119299-.13109142 2.5839347.83492027 3.4500061.8483984.7280052 1.8149805 1.3056547 2.858 1.708zm18.1-16.233c7.1797017 0 13 5.8202983 13 13s-5.8202983 13-13 13-13-5.8202983-13-13c.008266-7.1762751 5.8237249-12.991734 13-13zm-18.113 20.552c-.3076449-.109264-.5553907-.3425006-.683-.643-.1183781-.2758801-.1206163-.5878189-.0062091-.8653692.1144072-.2775504.3358105-.4973034.6142091-.6096308l3.5-1.447c.082 0 .163.008.245.009.33953 1.2247796.8345588 2.4010193 1.473 3.5-1.667534.5486123-3.4639156.5681724-5.143.056zm4.293 6.358h-.11c-.2992284.0001172-.5865277-.1173164-.8-.327-.2145544-.2110343-.3358832-.4990551-.337-.8.0012822-.2982796.1227743-.5834435.337-.791l2.715-2.714c.066-.024.126-.054.191-.08.7877052 1.0113992 1.7006768 1.9186584 2.717 2.7l-.047.044c-.0095022.0088357-.0185155.0181829-.027.028-1.3179878 1.0952792-2.9336703 1.7709472-4.639 1.94zm6.32 4.25c-.2909525.136911-.6258091.1463334-.924.026-.5728111-.2412687-.8471365-.8966264-.617-1.474l1.441-3.492c.07-.063.136-.127.2-.19 1.1072624.6293187 2.2905515 1.1142622 3.521 1.443-.7895741 1.5789678-2.0565501 2.8690371-3.621 3.687zm7.516 1.486c-.3102924.356633-.8095262.4828988-1.2520603.3166699-.4425341-.1662288-.7351778-.589947-.7339397-1.0626699v-3.792c.037-.079.074-.157.109-.236 1.2642882.1749165 2.5469349.17054 3.81-.013-.1418394 1.7561709-.818173 3.4267639-1.938 4.787zm7.5-1.487c-.1553697.4386631-.564586.7365534-1.029768.7496228s-.8904781-.261375-1.070232-.6906228l-1.448-3.5c0-.088.008-.177.009-.264 1.224309-.3363367 2.4005329-.8279983 3.5-1.463.5415588 1.6785374.5520353 3.4832885.03 5.168zm6.354-4.169c.0001056.2942293-.1176678.5762371-.327.783-.4383104.4371195-1.1476896.4371195-1.586 0l-2.684-2.684c-.029-.085-.059-.17-.091-.253 1.0021579-.7801448 1.9022206-1.6832312 2.679-2.688 1.1341838 1.3245817 1.8353141 2.9648566 2.009 4.7zm4.37-5.96c.0021089.1491274-.0261299.2971261-.083.435-.2386181.5754497-.8982433.8488764-1.474.611l-3.533-1.466c-.048-.053-.1-.1-.153-.154.6374979-1.1089484 1.129544-2.2953708 1.464-3.53 1.5711033.7882677 2.8543615 2.0508845 3.668 3.609.0738392.1545236.1117853.3237424.111.495zm1.76-7.16c-.0005514.6238532-.5061468 1.1294486-1.13 1.13h-3.825c-.059-.027-.122-.05-.183-.076.0874918-.6376812.1335883-1.2803598.138-1.924-.0047069-.6355195-.0494623-1.2701107-.134-1.9 1.7423453.1423044 3.3998.8128218 4.751 1.922.2422552.2154824.3814985.523781.383.848zm-1.871-8.346c.4395263.1545342.7383221.5640001.7514066 1.0297179.0130844.4657177-.2622501.8913139-.6924066 1.0702821l-3.543 1.467c-.059 0-.12 0-.179 0-.3340356-1.2392095-.8267812-2.4300673-1.466-3.543 1.6672374-.5307152 3.456869-.5390894 5.129-.024zm-4.309-6.364h.13c.614637.0075281 1.1113733.5033774 1.12 1.118-.0011168.3009449-.1224456.5889657-.337.8l-2.69 2.69c-.063.023-.123.051-.185.075-.7842881-1.013459-1.6942514-1.9230862-2.708-2.707 1.3207037-1.1162899 2.9491756-1.8053393 4.67-1.976zm-6.315-4.26c.2911213-.13646736.6259255-.14552591.924-.025.5744772.23959988.8491612.89687958.616 1.474l-1.436 3.488c-.058.052-.115.1-.169.156-1.1075668-.6350051-2.2923147-1.1247009-3.525-1.457.7954351-1.55150793 2.0487447-2.82087672 3.59-3.636zm-7.516-1.486c.3110673-.35272034.8078204-.4763694 1.2479398-.31063035s.7319203.58633979.7330602 1.05663035v3.8c-.027.057-.054.115-.08.172-1.2712785-.1786471-2.5614785-.1759536-3.832.008.1524946-1.7339822.8256004-3.38136601 1.931-4.726zm-7.5 1.487c.1553697-.43866314.564586-.73655336 1.029768-.74962276s.8904781.261375 1.070232.69062276l1.457 3.524v.178c-1.2388513.3377964-2.4287451.8345938-3.54 1.478-.5293237-1.6656274-.5338619-3.4537072-.013-5.122zm-6.359 4.179c-.0001056-.2942293.1176678-.5762371.327-.783.2102553-.2104322.4955289-.3286667.793-.3286667s.5827447.1182345.793.3286667l2.684 2.685.072.2c-1.0044501.7834415-1.9059183 1.6906216-2.683 2.7-1.1194064-1.3205538-1.8118956-2.9496119-1.986-4.672zm-4.37 5.95c-.0008489-.1468434.0277125-.2923703.084-.428.1132538-.2777536.3336408-.4981613.6113837-.6114413s.5894133-.1098766.8646163.0094413l3.5 1.437c.05.056.1.112.152.166-.6311142 1.1109782-1.1170814 2.298338-1.446 3.533-1.5643664-.7910175-2.841792-2.0520075-3.653-3.606-.0752693-.1558805-.1139199-.3269008-.113-.5zm-.63 6.03h3.792c.069.033.137.064.2.094-.1744613 1.2685122-.1677273 2.5553831.02 3.822-1.7487371-.141192-3.4116622-.8171154-4.763-1.936-.3532181-.3108797-.47705565-.8079765-.3109606-1.2482283.166095-.4402519.5874192-.731674 1.0579606-.7317717z"/><path id="Shape" d="m29.5 36.985c.1693333.01.336.015.5.015 2.0743769.0063352 4.0714106-.7869627 5.576-2.215 1.6304325-1.5411336 2.5560337-3.6844788 2.56-5.928 0-7.275-5.712-12.43-6.857-13.389-.744181-.6260377-1.830819-.6260377-2.575 0-.651.545-6.37 5.528-6.825 12.5-.1403544 2.3032142.636967 4.5683044 2.162 6.3 1.3813195 1.6015522 3.3484522 2.5806142 5.459 2.717zm-5.618-8.885c.4-6.141 5.53-10.606 6.12-11.1.628.526 6.141 5.334 6.141 11.856-.0004098 1.6947846-.7007508 3.3141547-1.9354042 4.4751568s-2.8939867 1.7605437-4.5855958 1.6568432c-1.577029-.1073162-3.0450457-.8429456-4.075-2.042-1.1728569-1.3322588-1.7713651-3.0742231-1.665-4.846z"/><path id="Shape" d="m30 33c.5522847 0 1-.4477153 1-1s-.4477153-1-1-1c-1.1830892-.0011026-2.1418974-.9599108-2.143-2.143 0-.5522847-.4477153-1-1-1s-1 .4477153-1 1c.0022051 2.2872017 1.8557983 4.1407949 4.143 4.143z"/><path id="Shape" d="m8.293 47.707c.39237889.3789722 1.01608478.3735524 1.40181858-.0121814.38573382-.3857338.39115362-1.0094397.01218142-1.4018186l-2.293-2.293h4.586c.5522847 0 1-.4477153 1-1s-.4477153-1-1-1h-4.586l2.293-2.293c.3789722-.3923789.3735524-1.0160848-.01218142-1.4018186-.3857338-.3857338-1.00943969-.3911536-1.40181858-.0121814l-4 4c-.39038194.3904999-.39038194 1.0235001 0 1.414z"/><path id="Shape" d="m47.077 9.382c.0499587.12146682.123356.23190251.216.325l4 4c.3923789.3789722 1.0160848.3735524 1.4018186-.0121814s.3911536-1.0094397.0121814-1.4018186l-2.293-2.293h4.586c.5522847 0 1-.44771525 1-1s-.4477153-1-1-1h-4.586l2.293-2.293c.3789722-.39237889.3735524-1.01608478-.0121814-1.40181858-.3857338-.38573379-1.0094397-.39115363-1.4018186-.01218142l-4 4c-.285397.28602574-.3706212.71569792-.216 1.089z"/></g></g></svg>