<?xml version="1.0" encoding="utf-8"?>
<!-- Svg Vector Icons : http://www.onlinewebfonts.com/icon -->
<!DOCTYPE svg PUBLIC "-//W3C//DTD SVG 1.1//EN" "http://www.w3.org/Graphics/SVG/1.1/DTD/svg11.dtd">
<svg version="1.1" xmlns="http://www.w3.org/2000/svg" xmlns:xlink="http://www.w3.org/1999/xlink" x="0px" y="0px"
    viewBox="0 0 256 256" enable-background="new 0 0 256 256" xml:space="preserve">
    <metadata> Svg Vector Icons : http://www.onlinewebfonts.com/icon </metadata>
    <g>
        <g>
            <path fill="#000000"
                d="M155,124.7c34.9-47,18.2-92.4-23.6-104.4C111.7,14.6,83,31.4,86,58.2c2.7,25.1,26.5,32.2,24.2,58.7C120.2,110.4,137.3,105.5,155,124.7L155,124.7z" />
            <path fill="#000000"
                d="M90.6,137.3C32.5,130.5,1.5,167.8,12,210c5,19.9,33.8,36.4,55.5,20.4c20.3-14.9,14.7-39,38.7-50.2C95.7,174.6,82.9,162.3,90.6,137.3L90.6,137.3z" />
            <path fill="#000000"
                d="M133.7,186.8c23.2,53.8,70.9,62,102.3,31.7c14.8-14.2,14.6-47.5-10.1-58.2c-23.1-10.2-41.2,6.8-62.9-8.4C163.5,163.8,159.3,181,133.7,186.8L133.7,186.8z" />
            <path fill="#000000"
                d="M105.5,141.3c-4.6,11.6,1.1,24.6,12.6,29.2c11.6,4.6,24.6-1.1,29.2-12.7c4.6-11.6-1.1-24.7-12.6-29.2C123.2,124.1,110.1,129.7,105.5,141.3L105.5,141.3z" />
        </g>
    </g>
</svg>