<?xml version="1.0" encoding="iso-8859-1"?>
<!-- Generator: Adobe Illustrator 19.0.0, SVG Export Plug-In . SVG Version: 6.00 Build 0)  -->
<svg version="1.1" id="Layer_1" xmlns="http://www.w3.org/2000/svg" xmlns:xlink="http://www.w3.org/1999/xlink" x="0px" y="0px"
	 viewBox="0 0 512 512" style="enable-background:new 0 0 512 512;" xml:space="preserve">
<g>
	<g>
		<path d="M353.103,224.804H325.03L291.139,55.521c-0.847-4.233-4.603-7.149-8.943-7.005c-4.314,0.14-7.893,3.421-8.463,7.699
			l-46.504,348.801l-59.726-261.292c-0.902-3.947-4.374-6.769-8.422-6.853c-3.962-0.04-7.635,2.599-8.699,6.506l-45.879,168.222
			l-34.469-89.792c-1.311-3.408-4.586-5.831-8.239-5.831H8.828c-4.875,0-8.828,3.953-8.828,8.828c0,4.875,3.953,8.828,8.828,8.828
			h46.903l41.961,109.273c1.37,3.562,4.876,5.914,8.684,5.735c3.811-0.193,7.068-2.769,8.071-6.451l43.695-160.192l62.769,274.627
			c0.921,4.029,4.504,6.866,8.601,6.866c0.137,0,0.274-0.001,0.41-0.008c4.266-0.195,7.779-3.416,8.344-7.649l45.958-344.684
			l24.912,124.387c0.825,4.126,4.448,6.924,8.656,6.924h35.31c4.875,0,8.828-3.953,8.828-8.828
			C361.931,228.756,357.978,224.804,353.103,224.804z"/>
	</g>
</g>
<g>
	<g>
		<path d="M441.379,224.804h-44.138c-4.875,0-8.828,3.953-8.828,8.828c0,4.875,3.953,8.828,8.828,8.828h44.138
			c4.875,0,8.828-3.953,8.828-8.828C450.207,228.756,446.254,224.804,441.379,224.804z"/>
	</g>
</g>
<g>
	<g>
		<path d="M503.172,224.804H476.69c-4.875,0-8.828,3.953-8.828,8.828c0,4.875,3.953,8.828,8.828,8.828h26.483
			c4.875,0,8.828-3.953,8.828-8.828C512,228.756,508.047,224.804,503.172,224.804z"/>
	</g>
</g>
<g>
</g>
<g>
</g>
<g>
</g>
<g>
</g>
<g>
</g>
<g>
</g>
<g>
</g>
<g>
</g>
<g>
</g>
<g>
</g>
<g>
</g>
<g>
</g>
<g>
</g>
<g>
</g>
<g>
</g>
</svg>
