<svg height="512pt" viewBox="-45 0 512 512" width="512pt" xmlns="http://www.w3.org/2000/svg"><path d="m415.300781 167.4375h-43.511719c-4.140624 0-7.5 3.359375-7.5 7.5s3.359376 7.5 7.5 7.5h43.511719c4.140625 0 7.5-3.359375 7.5-7.5s-3.359375-7.5-7.5-7.5zm0 0"/><path d="m371.789062 121.652344h19.753907c4.140625 0 7.5-3.359375 7.5-7.5 0-4.144532-3.359375-7.5-7.5-7.5h-19.753907c-4.140624 0-7.5 3.355468-7.5 7.5 0 4.140625 3.359376 7.5 7.5 7.5zm0 0"/><path d="m371.789062 60.863281h26.753907c4.144531 0 7.5-3.355469 7.5-7.5 0-4.140625-3.355469-7.5-7.5-7.5h-26.753907c-4.140624 0-7.5 3.359375-7.5 7.5 0 4.144531 3.359376 7.5 7.5 7.5zm0 0"/><path d="m398.546875 289.011719h-26.757813c-4.140624 0-7.5 3.355469-7.5 7.5 0 4.140625 3.359376 7.5 7.5 7.5h26.757813c4.140625 0 7.5-3.359375 7.5-7.5 0-4.144531-3.359375-7.5-7.5-7.5zm0 0"/><path d="m371.789062 243.222656h19.753907c4.140625 0 7.5-3.355468 7.5-7.5 0-4.140625-3.359375-7.5-7.5-7.5h-19.753907c-4.140624 0-7.5 3.359375-7.5 7.5 0 4.144532 3.359376 7.5 7.5 7.5zm0 0"/><path d="m339.226562 309.804688v-241.964844c0-37.40625-30.429687-67.839844-67.839843-67.839844-37.402344 0-67.835938 30.433594-67.835938 67.839844v241.964844c-28.023437 21.226562-44.640625 54.46875-44.640625 89.71875 0 62.019531 50.457032 112.476562 112.476563 112.476562 62.023437 0 112.480469-50.457031 112.480469-112.476562 0-35.25-16.613282-68.492188-44.640626-89.71875zm-67.839843 187.195312c-53.746094 0-97.476563-43.726562-97.476563-97.476562 0-31.6875 15.5-61.511719 41.457032-79.773438 1.996093-1.40625 3.183593-3.695312 3.183593-6.136719v-245.773437c0-29.136719 23.703125-52.839844 52.835938-52.839844 29.136719 0 52.839843 23.703125 52.839843 52.839844v245.773437c0 2.441407 1.1875 4.730469 3.183594 6.136719 25.957032 18.265625 41.457032 48.085938 41.457032 79.773438 0 53.75-43.730469 97.476562-97.480469 97.476562zm0 0"/><path d="m304.21875 324.667969v-256.828125c0-18.105469-14.726562-32.832032-32.832031-32.832032-18.101563 0-32.828125 14.726563-32.828125 32.832032v192.617187c0 4.144531 3.359375 7.5 7.5 7.5s7.5-3.355469 7.5-7.5v-138.804687h35.660156v208.035156c0 3.132812 1.945312 5.9375 4.878906 7.03125 25.296875 9.421875 42.289063 33.894531 42.289063 60.898438 0 35.84375-29.15625 65-65 65-35.839844 0-65-29.15625-65-65 0-27.003907 16.996093-51.476563 42.289062-60.898438 2.9375-1.097656 4.882813-3.898438 4.882813-7.03125v-39.222656c0-4.140625-3.359375-7.5-7.5-7.5s-7.5 3.359375-7.5 7.5v34.203125c-28.417969 12.804687-47.171875 41.484375-47.171875 72.949219 0 44.113281 35.890625 80 80 80 44.113281 0 80-35.886719 80-80 0-31.464844-18.75-60.140626-47.167969-72.949219zm-50.660156-218.015625v-38.8125c0-9.832032 8-17.832032 17.832031-17.832032 9.828125 0 17.828125 8 17.828125 17.832032v38.8125zm0 0"/><path d="m160.824219 160.167969c11.195312 1.027343 16.027343-13.871094 6.375-19.609375-11.738281-6.976563-11.757813-23.972656 0-30.960938 9.660156-5.746094 4.808593-20.640625-6.375-19.613281-13.609375 1.261719-23.59375-12.5-18.199219-25.046875 4.441406-10.324219-8.242188-19.527344-16.679688-12.121094-10.261718 9.007813-26.4375 3.773438-29.449218-9.566406-2.476563-10.964844-18.144532-10.953125-20.617188 0-3.007812 13.316406-19.167968 18.585938-29.449218 9.566406-8.441407-7.414062-21.117188 1.800782-16.679688 12.121094 5.402344 12.558594-4.601562 26.304688-18.199219 25.046875-11.191406-1.019531-16.027343 13.871094-6.371093 19.613281 11.753906 6.988282 11.730468 23.988282-.003907 30.960938-9.648437 5.738281-4.820312 20.632812 6.375 19.609375 13.59375-1.261719 23.601563 12.488281 18.199219 25.046875-4.441406 10.324218 8.242188 19.527344 16.679688 12.121094 10.261718-9.007813 26.4375-3.769532 29.449218 9.566406 2.476563 10.964844 18.144532 10.953125 20.617188 0 3.007812-13.316406 19.171875-18.589844 29.449218-9.566406 8.445313 7.410156 21.121094-1.804688 16.679688-12.121094-5.390625-12.53125 4.582031-26.304688 18.199219-25.046875zm-9.910157-14.0625c-15.132812 3.859375-25.742187 18.257812-24.722656 34.027343-14.511718-5.773437-31.554687-.359374-40 13-8.359375-13.222656-25.335937-18.835937-40.003906-13 1.011719-15.621093-9.4375-30.128906-24.722656-34.027343 9.976562-12.015625 10.09375-29.898438 0-42.058594 15.203125-3.875 25.738281-18.320313 24.722656-34.027344 14.542969 5.785157 31.574219.335938 40.003906-12.996093 8.382813 13.261718 25.375 18.8125 40 12.996093-1.011718 15.621094 9.4375 30.128907 24.722656 34.027344-10.027343 12.078125-10.050781 29.957031 0 42.058594zm0 0"/><path d="m86.1875 83.726562c-22.800781 0-41.347656 18.550782-41.347656 41.351563s18.546875 41.351563 41.347656 41.351563 41.351562-18.550782 41.351562-41.351563-18.550781-41.351563-41.351562-41.351563zm0 67.699219c-14.527344 0-26.347656-11.820312-26.347656-26.347656 0-14.53125 11.820312-26.351563 26.347656-26.351563 14.53125 0 26.351562 11.820313 26.351562 26.351563 0 14.527344-11.820312 26.347656-26.351562 26.347656zm0 0"/></svg>