<?xml version="1.0" standalone="no"?>
<!DOCTYPE svg PUBLIC "-//W3C//DTD SVG 20010904//EN"
 "http://www.w3.org/TR/2001/REC-SVG-20010904/DTD/svg10.dtd">
<svg version="1.0" xmlns="http://www.w3.org/2000/svg"
 width="337.000000pt" height="328.000000pt" viewBox="0 0 337.000000 328.000000"
 preserveAspectRatio="xMidYMid meet">
<metadata>
Created by potrace 1.15, written by Peter Selinger 2001-2017
</metadata>
<g transform="translate(0.000000,328.000000) scale(0.100000,-0.100000)"
fill="#000000" stroke="none">
<path d="M367 3243 c-9 -8 -9 -1753 -1 -1753 3 0 23 13 43 29 20 16 61 41 92
56 l57 28 -14 56 c-47 199 23 432 174 579 127 123 259 176 442 176 149 0 248
-30 378 -115 25 -17 31 -18 26 -5 -5 13 1 16 32 16 77 -1 148 -50 179 -122 24
-59 20 -103 -13 -127 -27 -21 -26 -21 28 1 79 31 280 32 358 1 174 -70 298
-213 334 -384 12 -57 13 -59 43 -59 79 0 224 -59 270 -110 10 -11 22 -20 27
-20 4 0 8 396 8 880 l0 880 -1228 0 c-676 0 -1232 -3 -1235 -7z m1415 -223
c38 -433 379 -775 813 -817 l80 -8 3 -77 3 -78 -43 0 c-125 0 -302 47 -443
118 -224 112 -407 312 -498 542 -50 127 -93 357 -72 390 4 7 33 10 78 8 l72
-3 7 -75z m298 47 c0 -53 36 -179 69 -246 39 -76 141 -185 215 -230 76 -46
167 -77 249 -86 l68 -7 -3 -76 -3 -77 -58 3 c-33 2 -92 12 -132 22 -247 63
-447 255 -529 508 -17 51 -37 200 -29 215 2 4 38 7 79 7 l74 0 0 -33z m300 8
c0 -41 38 -129 74 -171 42 -49 116 -90 179 -99 l47 -7 0 -74 c0 -54 -4 -76
-14 -80 -23 -9 -147 25 -207 57 -115 62 -211 198 -229 326 -4 32 -6 61 -3 66
2 4 38 7 79 7 72 0 74 -1 74 -25z"/>
<path d="M1522 607 c-85 -31 -136 -121 -136 -237 1 -142 73 -230 197 -238 51
-3 70 1 107 20 48 26 86 81 92 133 3 29 1 30 -39 33 -39 3 -42 1 -53 -32 -30
-92 -130 -101 -187 -17 -18 27 -23 48 -23 98 0 108 39 163 113 163 49 0 73
-13 92 -50 13 -26 21 -30 55 -30 34 0 40 3 40 20 0 29 -28 81 -54 103 -54 45
-135 58 -204 34z"/>
<path d="M1857 604 c-4 -4 -7 -110 -7 -236 l0 -229 43 3 42 3 0 230 0 230 -35
3 c-20 2 -39 0 -43 -4z"/>
<path d="M2980 530 c0 -45 -3 -80 -7 -78 -81 41 -120 44 -171 11 -58 -36 -80
-168 -42 -250 34 -77 118 -105 186 -62 29 17 34 18 34 5 0 -12 10 -16 40 -16
l40 0 -2 233 -3 232 -37 3 -38 3 0 -81z m-37 -130 c30 -24 42 -73 33 -126 -14
-72 -80 -98 -126 -49 -19 20 -23 36 -23 87 0 54 3 64 27 85 33 28 56 29 89 3z"/>
<path d="M80 370 l0 -230 40 0 40 0 0 162 c0 102 4 158 9 152 6 -5 32 -76 59
-159 l48 -150 35 -3 c39 -3 32 -17 93 176 20 62 40 121 46 130 6 12 9 -34 10
-146 l0 -163 43 3 42 3 3 228 2 227 -68 0 -68 0 -39 -132 c-53 -183 -54 -187
-65 -167 -5 9 -28 74 -50 145 -23 71 -43 135 -45 142 -3 8 -26 12 -70 12 l-65
0 0 -230z"/>
<path d="M640 370 l0 -230 163 2 162 3 0 35 0 35 -115 5 -115 5 -3 54 c-2 37
1 57 10 62 7 5 55 9 106 9 l92 0 0 35 0 35 -106 0 -105 0 3 53 3 52 113 3 112
3 0 34 0 35 -160 0 -160 0 0 -230z"/>
<path d="M1040 370 l0 -230 150 0 150 0 0 40 0 39 -102 3 -103 3 -3 188 -2
187 -45 0 -45 0 0 -230z"/>
<path d="M2112 481 c-73 -19 -118 -99 -110 -196 7 -86 60 -143 139 -152 66 -7
118 15 152 64 25 35 30 51 30 107 1 76 -19 121 -67 154 -36 25 -97 34 -144 23z
m81 -70 c33 -13 51 -61 45 -121 -6 -62 -29 -90 -74 -90 -62 0 -96 69 -74 149
10 39 41 71 67 71 6 0 23 -4 36 -9z"/>
<path d="M2386 464 c-10 -26 -7 -189 5 -243 5 -27 19 -57 31 -68 27 -25 118
-25 145 -1 24 22 33 23 33 3 0 -11 11 -15 40 -15 l40 0 0 170 0 170 -39 0 -39
0 -3 -119 c-4 -133 -17 -161 -70 -161 -48 0 -59 29 -59 162 l0 118 -39 0 c-26
0 -41 -5 -45 -16z"/>
</g>
</svg>
