<?xml version="1.0" encoding="utf-8"?>
<!-- Svg Vector Icons : http://www.onlinewebfonts.com/icon -->
<!DOCTYPE svg PUBLIC "-//W3C//DTD SVG 1.1//EN" "http://www.w3.org/Graphics/SVG/1.1/DTD/svg11.dtd">
<svg version="1.1" xmlns="http://www.w3.org/2000/svg" xmlns:xlink="http://www.w3.org/1999/xlink" x="0px" y="0px"
    viewBox="0 0 256 256" enable-background="new 0 0 256 256" xml:space="preserve">
    <metadata> Svg Vector Icons : http://www.onlinewebfonts.com/icon </metadata>
    <g>
        <g>
            <path fill="#000000"
                d="M66.2,138.9h22c3.2,0,5.8-2.6,5.8-5.8c0-3.2-2.6-5.8-5.8-5.8h-22c-3.2,0-5.9,2.6-5.9,5.8C60.3,136.3,62.9,138.9,66.2,138.9L66.2,138.9z" />
            <path fill="#000000"
                d="M119.6,171.9H66.2c-3.2,0-5.9,2.6-5.9,5.8c0,3.2,2.6,5.8,5.9,5.8h53.5c3.2,0,5.8-2.6,5.8-5.8C125.5,174.5,122.8,171.9,119.6,171.9L119.6,171.9z" />
            <path fill="#000000"
                d="M119.6,149.2H66.2c-3.2,0-5.9,2.6-5.9,5.8c0,3.2,2.6,5.8,5.9,5.8h53.5c3.2,0,5.8-2.6,5.8-5.8C125.5,151.8,122.8,149.2,119.6,149.2L119.6,149.2z" />
            <path fill="#000000"
                d="M222.2,40.9c-17.7,0-22.7-23.6-22.9-24.7c-0.8-3.9-4.4-6.5-8.3-5.9c-3.9-0.6-7.6,2-8.3,5.9c-0.1,0.2-5,24.6-22.9,24.6c-3.8,0-7,2.8-7.4,6.6s2,7.2,5.7,8.1c0.1,0,6.1,1.5,12.1,6.4c8.2,6.7,12.4,16.2,12.4,28.4c0,4.1,3.3,7.4,7.5,7.4c0.3,0,0.7,0,1-0.1c0.3,0,0.7,0.1,1,0.1c4.1,0,7.4-3.3,7.4-7.4c0-28.4,23.5-34.6,24.5-34.8c3.7-0.8,6.2-4.3,5.7-8.1C229.1,43.7,226,40.9,222.2,40.9L222.2,40.9z M190.9,64.1c-3.4-6-7.7-10.8-12.3-14.4c5.3-3.7,9.3-8.8,12.3-14.1c3,5.2,7,10.3,12.3,14.1C198.7,53.3,194.3,58.1,190.9,64.1L190.9,64.1z" />
            <path fill="#000000"
                d="M152.7,136.8c-4.6,0-8.4,3.8-8.4,8.4v4.1v60.2c0,8.3-10,18.3-18.3,18.3H61.4c-8.3,0-18.3-10-18.3-18.3V132c0-13.8,7.3-27.2,18.1-36.4c0.2-0.2,0.4-0.4,0.6-0.5c8.4-6.9,18.8-11.3,29.5-11.3h4.8c13.9,0,28.7,7.8,38,22c1.3,3.9,5,6.7,9.4,6.7c5.5,0,9.9-4.5,9.9-10c0-2.6-1-4.9-2.6-6.7c-0.1-0.4-0.3-0.7-0.6-1.1c-9.5-11.7-20.5-20.1-36.2-23.6c1.2-2.8,2-5.7,2-8.9c0-9.8-6.3-17.8-15-20.9V25h9.8c0,0,5.3-1.9,5.2-7.5c-0.2-4.1-3.4-7.5-7.5-7.5H78.7c-1.8,0-5.4,0.8-9.2,2.1c-10.4,4-12.6,5.2-20.5,11.6c-4.8,3.8-7.2,5.6-7.2,8.8c0,4.1,3.3,7.5,7.5,7.5c1.6,0,3-0.6,4.2-1.5l0.1,0.1c8.7-7.9,20.1-12.9,32.6-13.4v16.3c-8.7,3.1-15,11.2-15,20.9c0,3.2,0.6,6.1,1.8,8.9c-26.8,6-46.7,29.9-46.7,58.5v86.3c0,16.5,13.4,29.9,29.9,29.9h74.8l0,0c16.5,0,29.9-13.4,29.9-29.9v-70.9C161.1,140.5,157.3,136.8,152.7,136.8L152.7,136.8z M93.7,51.6c4.1,0,10.8,6.7,10.8,10.8c0,4.1-6.7,9.7-10.8,9.7c-4.1,0-10.8-5.6-10.8-9.7C82.9,58.2,89.6,51.6,93.7,51.6L93.7,51.6z" />
        </g>
    </g>
</svg>