<?xml version="1.0" encoding="utf-8"?>
<!-- Svg Vector Icons : http://www.onlinewebfonts.com/icon -->
<!DOCTYPE svg PUBLIC "-//W3C//DTD SVG 1.1//EN" "http://www.w3.org/Graphics/SVG/1.1/DTD/svg11.dtd">
<svg version="1.1" xmlns="http://www.w3.org/2000/svg" xmlns:xlink="http://www.w3.org/1999/xlink" x="0px" y="0px"
    viewBox="0 0 256 256" enable-background="new 0 0 256 256" xml:space="preserve">
    <metadata> Svg Vector Icons : http://www.onlinewebfonts.com/icon </metadata>
    <g>
        <g>
            <path fill="#000000"
                d="M207.8,15.9c-16.5-1.6-30.7,11-32.3,27.5c-1.6,16.5,11,30.7,27.5,32.3c16.5,1.6,30.7-11,32.3-27.5C236.9,31.6,224.3,17.4,207.8,15.9z M203.9,63.1c-9.4-0.8-16.5-8.6-15.7-18.1c0.8-9.4,8.6-16.5,18.1-15.7c9.4,0.8,16.5,8.6,15.7,18.1C221.2,56.8,213.3,63.9,203.9,63.1z" />
            <path fill="#000000"
                d="M221.2,122.1l-22,22.8c-1.6,1.6-4.7,1.6-6.3,0l-22-22.8c-2.4-3.2-0.8-3.9,0.8-6.3h20.5c-5.5-30.7-32.3-53.5-63.7-53.5c-24.4,0-45.6,14.2-56.7,34.6l-11-4.7C73.3,67,99.3,50.5,128.4,50.5c38.6,0,70,28.3,75.5,66.1h16.5C222.8,118.2,223.6,120.5,221.2,122.1z M63.8,117.4l22,22.8c1.6,1.6,0.8,3.9-0.8,6.3H66.2c7.9,27.5,32.3,48,62.2,48c22.8,0,42.5-11.8,54.3-29.1l11,4.7c-13.4,22-37.8,37-65.3,37c-36.2,0-66.1-25.2-74-59.8H37.1c-1.6-1.6-3.9-3.2-0.8-6.3l22-22.8C59.1,115.8,62.3,115.8,63.8,117.4z" />
            <path fill="#000000"
                d="M225.1,60.7c-3.2,4.7-7.1,7.9-12.6,9.4c12.6,18.9,19.7,41.7,18.1,66.1c-4.7,56.7-53.5,98.3-110.1,94.4c-56.7-4.7-98.4-53.5-94.4-110.1c4.7-56.7,53.5-98.4,110.1-94.4c16.5,1.6,32.3,6.3,45.6,15c1.6-5.5,4.7-10.2,8.6-13.4c-15.7-9.4-33.8-16.5-53.5-17.3C71.7,5.6,15,53.6,10.3,118.9c-4.7,65.3,43.3,122,108.6,126.7c65.3,4.7,121.9-43.3,126.7-108.6C247.9,108.7,240.1,82,225.1,60.7z" />
        </g>
    </g>
</svg>