<svg height="512" viewBox="0 0 512 512" width="512" xmlns="http://www.w3.org/2000/svg"><path d="m104 16a32.036 32.036 0 0 0 -32 32v178.094a55.913 55.913 0 0 0 17.53 99.942c11.021 95.754 93.429 169.964 190.47 169.964 105.867 0 192-86.133 192-192s-86.133-192-192-192a191.934 191.934 0 0 0 -144 65.033v-65.033h24a8 8 0 0 0 0-16h-24v-16h32a8 8 0 0 0 0-16h-32v-16a32.036 32.036 0 0 0 -32-32zm-40 256a40.15 40.15 0 0 1 20.012-34.6 8 8 0 0 0 3.988-6.927v-182.473a16 16 0 0 1 32 0v182.473a8 8 0 0 0 3.988 6.922 39.984 39.984 0 1 1 -59.988 34.605zm216-144c97.047 0 176 78.953 176 176s-78.953 176-176 176c-87.876 0-162.634-66.394-174.147-152.094a55.924 55.924 0 0 0 30.147-101.812v-23.175a175.975 175.975 0 0 1 144-74.919z"/><path d="m112 249.47v-185.47h-16v185.47a24 24 0 1 0 16 0z"/><path d="m216 424h144a47.9 47.9 0 0 0 11.254-94.48 55.678 55.678 0 0 0 -33.332-30.456 63.982 63.982 0 1 0 -120.7-14.594 63.69 63.69 0 0 0 -17.222 43.53v2.738a48 48 0 0 0 16 93.262zm54.676-199.113a48.181 48.181 0 0 1 56.437 37.793 47.665 47.665 0 0 1 -5.692 33.457c-.691-.019-1.358-.139-2.054-.133a64.261 64.261 0 0 0 -55.367-32.004 63.524 63.524 0 0 0 -31.984 8.65 48.176 48.176 0 0 1 38.66-47.763zm-61.082 119.758a8 8 0 0 0 6.406-7.84v-8.805a47.965 47.965 0 0 1 91.441-20.3 8.045 8.045 0 0 0 8.118 4.559 40.688 40.688 0 0 1 4.441-.259 39.982 39.982 0 0 1 37.836 27.125 8 8 0 0 0 6.492 5.348 31.9 31.9 0 0 1 -4.328 63.527h-144a32 32 0 0 1 -6.406-63.355z"/><path d="m272 168h16v24h-16z"/><path d="m206.946 194.947h15.998v23.997h-15.998z" transform="matrix(.707 -.707 .707 .707 -83.376 212.602)"/><path d="m176 264h24v16h-24z"/><path d="m360 264h24v16h-24z"/><path d="m333.056 198.946h23.997v15.998h-23.997z" transform="matrix(.707 -.707 .707 .707 -45.268 304.603)"/><path d="m216 376h56v16h-56z"/><path d="m288 376h16v16h-16z"/></svg>