<svg height="480pt" viewBox="0 -24 480.02097 480" width="480pt" xmlns="http://www.w3.org/2000/svg"><path d="m240.011719.0117188c-13.257813 0-24 10.7421872-24 24.0000002v248c0 2.671875-1.335938 5.171875-3.5625 6.65625-12.929688 9.800781-20.5 25.113281-20.4375 41.34375 0 26.507812 21.488281 48 48 48 26.507812 0 48-21.492188 48-48 .027343-16.222657-7.535157-31.519531-20.441407-41.34375-2.222656-1.484375-3.558593-3.984375-3.558593-6.65625v-248c0-13.257813-10.746094-24.0000002-24-24.0000002zm32 319.1992192c0 17.671874-14.328125 32-32 32-17.675781 0-32-14.328126-32-32-.207031-14.484376 9.835937-27.105469 24-30.152344v-137.046875c0-4.417969 3.582031-8 8-8s8 3.582031 8 8v137.015625c14.171875 3.050781 24.21875 15.6875 24 30.183594zm0 0"/><path d="m240.011719 304.011719c-4.179688-.253907-8.273438 1.238281-11.304688 4.121093-3.035156 2.882813-4.734375 6.894532-4.695312 11.078126 0 8.835937 7.164062 16 16 16 8.835937 0 16-7.164063 16-16 .039062-4.183594-1.664063-8.195313-4.695313-11.078126-3.035156-2.882812-7.128906-4.375-11.304687-4.121093zm0 0"/><path d="m304.011719 160.011719h48c4.417969 0 8-3.582031 8-8s-3.582031-8-8-8h-48c-4.417969 0-8 3.582031-8 8s3.582031 8 8 8zm0 0"/><path d="m304.011719 128.011719h32c4.417969 0 8-3.582031 8-8s-3.582031-8-8-8h-32c-4.417969 0-8 3.582031-8 8s3.582031 8 8 8zm0 0"/><path d="m304.011719 96.011719h48c4.417969 0 8-3.582031 8-8s-3.582031-8-8-8h-48c-4.417969 0-8 3.582031-8 8s3.582031 8 8 8zm0 0"/><path d="m304.011719 64.011719h32c4.417969 0 8-3.582031 8-8s-3.582031-8-8-8h-32c-4.417969 0-8 3.582031-8 8s3.582031 8 8 8zm0 0"/><path d="m304.011719 32.011719h48c4.417969 0 8-3.582031 8-8s-3.582031-8-8-8h-48c-4.417969 0-8 3.582031-8 8s3.582031 8 8 8zm0 0"/><path d="m16.011719 103.609375c-.277344-4.390625-4.003907-7.765625-8.402344-7.597656-2.121094.101562-4.117187 1.046875-5.542969 2.621093-1.425781 1.578126-2.1640622 3.65625-2.0546872 5.777344l16.0000002 320c.210937 4.261719 3.730469 7.605469 8 7.601563h432c4.265625.003906 7.785156-3.339844 8-7.601563l16-320c.109375-2.121094-.632813-4.199218-2.058594-5.777344-1.425781-1.574218-3.421875-2.519531-5.542969-2.621093-4.390625-.144531-8.105468 3.214843-8.398437 7.597656l-7.203125 144.234375c-13.582032-.386719-26.988282-3.207031-39.574219-8.328125-13.066406-5.359375-27.109375-7.914063-41.222656-7.503906-14.117188-.414063-28.160157 2.144531-41.226563 7.503906-14.835937 6.03125-30.761718 8.925781-46.773437 8.496094-2.769531 0-5.410157-.074219-8-.183594v20.277344c15.238281 12.933593 24.015625 31.917969 24 51.90625 0 35.34375-28.65625 64-64 64-35.347657 0-64-28.65625-64-64-.019531-19.988281 8.757812-38.972657 24-51.90625v-35.902344c-2.570313-.128906-5.226563-.191406-8-.191406-14.113281-.414063-28.15625 2.140625-41.21875 7.503906-14.839844 6.03125-30.769531 8.925781-46.78125 8.496094-16.117188.445312-32.132813-2.636719-46.929688-9.035157-10.953125-4.78125-22.722656-7.417968-34.671875-7.765624zm0 0"/></svg>